<svg version="1.1" viewBox="0.0 0.0 639.7086614173228 572.509186351706" fill="none" stroke="none" stroke-linecap="square" stroke-miterlimit="10" xmlns:xlink="http://www.w3.org/1999/xlink" xmlns="http://www.w3.org/2000/svg"><clipPath id="p.0"><path d="m0 0l639.7087 0l0 572.5092l-639.7087 0l0 -572.5092z" clip-rule="nonzero"/></clipPath><g clip-path="url(#p.0)"><path fill="#000000" fill-opacity="0.0" d="m0 0l639.7087 0l0 572.5092l-639.7087 0z" fill-rule="evenodd"/><path fill="#cccccc" d="m0.6929134 0.6929134l639.7165 0l0 572.5039l-639.7165 0z" fill-rule="evenodd"/><path stroke="#000000" stroke-width="1.0" stroke-linejoin="round" stroke-linecap="butt" d="m0.6929134 0.6929134l639.7165 0l0 572.5039l-639.7165 0z" fill-rule="evenodd"/><path fill="#6fa8dc" d="m102.02855 84.25863l0 0c0 -38.86945 31.509918 -70.379364 70.379364 -70.379364l281.50897 0l0 0c18.665771 0 36.567047 7.4149475 49.765717 20.613636c13.198669 13.198692 20.613647 31.099957 20.613647 49.765728l0 396.87906c0 38.869446 -31.509918 70.379395 -70.379364 70.379395l-281.50897 0c-38.869446 0 -70.379364 -31.509949 -70.379364 -70.379395z" fill-rule="evenodd"/><path stroke="#000000" stroke-width="1.304461942257218" stroke-linejoin="round" stroke-linecap="butt" d="m102.02855 84.25863l0 0c0 -38.86945 31.509918 -70.379364 70.379364 -70.379364l281.50897 0l0 0c18.665771 0 36.567047 7.4149475 49.765717 20.613636c13.198669 13.198692 20.613647 31.099957 20.613647 49.765728l0 396.87906c0 38.869446 -31.509918 70.379395 -70.379364 70.379395l-281.50897 0c-38.869446 0 -70.379364 -31.509949 -70.379364 -70.379395z" fill-rule="evenodd"/><path fill="#000000" d="m195.93565 507.66785l2.171875 -0.1875q0.15625 1.296875 0.71875 2.140625q0.5625 0.84375 1.75 1.359375q1.1875 0.515625 2.671875 0.515625q1.328125 0 2.328125 -0.390625q1.015625 -0.390625 1.5 -1.078125q0.5 -0.6875 0.5 -1.5q0 -0.8125 -0.484375 -1.421875q-0.46875 -0.609375 -1.5625 -1.03125q-0.703125 -0.265625 -3.109375 -0.84375q-2.390625 -0.578125 -3.34375 -1.09375q-1.25 -0.65625 -1.859375 -1.625q-0.609375 -0.96875 -0.609375 -2.15625q0 -1.328125 0.734375 -2.46875q0.75 -1.15625 2.1875 -1.75q1.4375 -0.59375 3.203125 -0.59375q1.9375 0 3.40625 0.625q1.484375 0.625 2.28125 1.84375q0.796875 1.203125 0.859375 2.734375l-2.21875 0.171875q-0.171875 -1.65625 -1.203125 -2.5q-1.03125 -0.84375 -3.03125 -0.84375q-2.09375 0 -3.046875 0.78125q-0.953125 0.765625 -0.953125 1.84375q0 0.9375 0.671875 1.546875q0.671875 0.59375 3.46875 1.234375q2.8125 0.640625 3.859375 1.109375q1.515625 0.703125 2.234375 1.78125q0.734375 1.078125 0.734375 2.46875q0 1.390625 -0.796875 2.625q-0.796875 1.234375 -2.296875 1.921875q-1.484375 0.671875 -3.34375 0.671875q-2.359375 0 -3.96875 -0.6875q-1.59375 -0.6875 -2.5 -2.0625q-0.90625 -1.390625 -0.953125 -3.140625zm24.961044 0.96875l2.109375 0.28125q-0.34375 2.171875 -1.765625 3.40625q-1.421875 1.21875 -3.484375 1.21875q-2.59375 0 -4.171875 -1.6875q-1.5625 -1.6875 -1.5625 -4.859375q0 -2.03125 0.671875 -3.5625q0.671875 -1.546875 2.0625 -2.3125q1.390625 -0.765625 3.015625 -0.765625q2.046875 0 3.359375 1.046875q1.3125 1.03125 1.671875 2.953125l-2.078125 0.3125q-0.296875 -1.265625 -1.046875 -1.90625q-0.75 -0.640625 -1.828125 -0.640625q-1.609375 0 -2.625 1.15625q-1.015625 1.15625 -1.015625 3.671875q0 2.53125 0.96875 3.6875q0.984375 1.15625 2.5625 1.15625q1.25 0 2.09375 -0.765625q0.84375 -0.78125 1.0625 -2.390625zm3.9453125 4.625l0 -17.421875l2.125 0l0 6.25q1.5 -1.734375 3.78125 -1.734375q1.40625 0 2.4375 0.5625q1.03125 0.546875 1.46875 1.53125q0.453125 0.96875 0.453125 2.8125l0 8.0l-2.140625 0l0 -8.0q0 -1.59375 -0.703125 -2.328125q-0.6875 -0.734375 -1.953125 -0.734375q-0.953125 0 -1.796875 0.5q-0.828125 0.484375 -1.1875 1.328125q-0.359375 0.84375 -0.359375 2.328125l0 6.90625l-2.125 0zm22.155151 -4.0625l2.21875 0.265625q-0.53125 1.9375 -1.953125 3.015625q-1.40625 1.0625 -3.59375 1.0625q-2.765625 0 -4.390625 -1.703125q-1.625 -1.703125 -1.625 -4.78125q0 -3.1875 1.640625 -4.9375q1.640625 -1.765625 4.25 -1.765625q2.53125 0 4.125 1.734375q1.609375 1.71875 1.609375 4.84375q0 0.1875 0 0.5625l-9.421875 0q0.125 2.078125 1.171875 3.1875q1.0625 1.109375 2.640625 1.109375q1.1875 0 2.015625 -0.609375q0.828125 -0.625 1.3125 -1.984375zm-7.015625 -3.453125l7.046875 0q-0.140625 -1.59375 -0.8125 -2.390625q-1.015625 -1.234375 -2.640625 -1.234375q-1.484375 0 -2.484375 0.984375q-1.0 0.984375 -1.109375 2.640625zm20.092651 7.515625l0 -1.59375q-1.1875 1.875 -3.515625 1.875q-1.515625 0 -2.78125 -0.828125q-1.265625 -0.828125 -1.96875 -2.3125q-0.6875 -1.5 -0.6875 -3.4375q0 -1.890625 0.625 -3.421875q0.640625 -1.546875 1.890625 -2.359375q1.265625 -0.828125 2.828125 -0.828125q1.140625 0 2.03125 0.484375q0.890625 0.484375 1.4375 1.25l0 -6.25l2.125 0l0 17.421875l-1.984375 0zm-6.75 -6.296875q0 2.421875 1.015625 3.625q1.03125 1.203125 2.421875 1.203125q1.390625 0 2.375 -1.140625q0.984375 -1.15625 0.984375 -3.515625q0 -2.578125 -1.0 -3.78125q-1.0 -1.21875 -2.46875 -1.21875q-1.421875 0 -2.375 1.171875q-0.953125 1.15625 -0.953125 3.65625zm20.373901 6.296875l0 -1.859375q-1.484375 2.140625 -4.0 2.140625q-1.125 0 -2.09375 -0.421875q-0.96875 -0.421875 -1.4375 -1.0625q-0.46875 -0.65625 -0.65625 -1.59375q-0.125 -0.640625 -0.125 -2.0l0 -7.8125l2.125 0l0 6.984375q0 1.6875 0.140625 2.265625q0.203125 0.84375 0.84375 1.328125q0.65625 0.46875 1.625 0.46875q0.96875 0 1.796875 -0.484375q0.84375 -0.5 1.1875 -1.34375q0.359375 -0.84375 0.359375 -2.46875l0 -6.75l2.140625 0l0 12.609375l-1.90625 0zm5.2176514 0l0 -17.421875l2.125 0l0 17.421875l-2.125 0zm14.076813 -4.0625l2.21875 0.265625q-0.53125 1.9375 -1.953125 3.015625q-1.40625 1.0625 -3.59375 1.0625q-2.765625 0 -4.390625 -1.703125q-1.625 -1.703125 -1.625 -4.78125q0 -3.1875 1.640625 -4.9375q1.640625 -1.765625 4.25 -1.765625q2.53125 0 4.125 1.734375q1.609375 1.71875 1.609375 4.84375q0 0.1875 0 0.5625l-9.421875 0q0.125 2.078125 1.171875 3.1875q1.0625 1.109375 2.640625 1.109375q1.1875 0 2.015625 -0.609375q0.828125 -0.625 1.3125 -1.984375zm-7.015625 -3.453125l7.046875 0q-0.140625 -1.59375 -0.8125 -2.390625q-1.015625 -1.234375 -2.640625 -1.234375q-1.484375 0 -2.484375 0.984375q-1.0 0.984375 -1.109375 2.640625zm11.889526 7.515625l0 -12.609375l1.921875 0l0 1.90625q0.734375 -1.34375 1.359375 -1.765625q0.625 -0.4375 1.375 -0.4375q1.078125 0 2.203125 0.6875l-0.734375 1.984375q-0.796875 -0.453125 -1.578125 -0.453125q-0.703125 0 -1.265625 0.421875q-0.546875 0.421875 -0.78125 1.171875q-0.359375 1.140625 -0.359375 2.484375l0 6.609375l-2.140625 0zm14.376221 -5.59375l2.171875 -0.1875q0.15625 1.296875 0.71875 2.140625q0.5625 0.84375 1.75 1.359375q1.1875 0.515625 2.671875 0.515625q1.328125 0 2.328125 -0.390625q1.015625 -0.390625 1.5 -1.078125q0.5 -0.6875 0.5 -1.5q0 -0.8125 -0.484375 -1.421875q-0.46875 -0.609375 -1.5625 -1.03125q-0.703125 -0.265625 -3.109375 -0.84375q-2.390625 -0.578125 -3.34375 -1.09375q-1.25 -0.65625 -1.859375 -1.625q-0.609375 -0.96875 -0.609375 -2.15625q0 -1.328125 0.734375 -2.46875q0.75 -1.15625 2.1875 -1.75q1.4375 -0.59375 3.203125 -0.59375q1.9375 0 3.40625 0.625q1.484375 0.625 2.28125 1.84375q0.796875 1.203125 0.859375 2.734375l-2.21875 0.171875q-0.171875 -1.65625 -1.203125 -2.5q-1.03125 -0.84375 -3.03125 -0.84375q-2.09375 0 -3.046875 0.78125q-0.953125 0.765625 -0.953125 1.84375q0 0.9375 0.671875 1.546875q0.671875 0.59375 3.46875 1.234375q2.8125 0.640625 3.859375 1.109375q1.515625 0.703125 2.234375 1.78125q0.734375 1.078125 0.734375 2.46875q0 1.390625 -0.796875 2.625q-0.796875 1.234375 -2.296875 1.921875q-1.484375 0.671875 -3.34375 0.671875q-2.359375 0 -3.96875 -0.6875q-1.59375 -0.6875 -2.5 -2.0625q-0.90625 -1.390625 -0.953125 -3.140625zm25.007935 5.59375l0 -1.859375q-1.484375 2.140625 -4.0 2.140625q-1.125 0 -2.09375 -0.421875q-0.96875 -0.421875 -1.4375 -1.0625q-0.46875 -0.65625 -0.65625 -1.59375q-0.125 -0.640625 -0.125 -2.0l0 -7.8125l2.125 0l0 6.984375q0 1.6875 0.140625 2.265625q0.203125 0.84375 0.84375 1.328125q0.65625 0.46875 1.625 0.46875q0.96875 0 1.796875 -0.484375q0.84375 -0.5 1.1875 -1.34375q0.359375 -0.84375 0.359375 -2.46875l0 -6.75l2.140625 0l0 12.609375l-1.90625 0zm7.2332764 0l-1.984375 0l0 -17.421875l2.140625 0l0 6.21875q1.34375 -1.703125 3.453125 -1.703125q1.15625 0 2.203125 0.46875q1.046875 0.46875 1.703125 1.328125q0.671875 0.84375 1.046875 2.046875q0.390625 1.203125 0.390625 2.5625q0 3.25 -1.609375 5.015625q-1.59375 1.765625 -3.84375 1.765625q-2.234375 0 -3.5 -1.859375l0 1.578125zm-0.03125 -6.40625q0 2.265625 0.625 3.28125q1.0 1.65625 2.734375 1.65625q1.390625 0 2.40625 -1.21875q1.03125 -1.21875 1.03125 -3.625q0 -2.484375 -0.984375 -3.65625q-0.96875 -1.171875 -2.359375 -1.171875q-1.40625 0 -2.4375 1.21875q-1.015625 1.21875 -1.015625 3.515625zm10.733276 2.640625l2.109375 -0.328125q0.1875 1.265625 1.0 1.953125q0.8125 0.671875 2.265625 0.671875q1.484375 0 2.1875 -0.59375q0.71875 -0.609375 0.71875 -1.421875q0 -0.71875 -0.640625 -1.140625q-0.4375 -0.28125 -2.171875 -0.71875q-2.359375 -0.59375 -3.265625 -1.03125q-0.90625 -0.4375 -1.375 -1.203125q-0.46875 -0.765625 -0.46875 -1.6875q0 -0.84375 0.375 -1.5625q0.390625 -0.71875 1.0625 -1.1875q0.5 -0.375 1.359375 -0.625q0.859375 -0.265625 1.84375 -0.265625q1.484375 0 2.609375 0.4375q1.125 0.421875 1.65625 1.15625q0.53125 0.734375 0.734375 1.953125l-2.09375 0.28125q-0.140625 -0.96875 -0.828125 -1.515625q-0.671875 -0.546875 -1.921875 -0.546875q-1.46875 0 -2.109375 0.484375q-0.625 0.484375 -0.625 1.140625q0 0.421875 0.265625 0.75q0.25 0.34375 0.8125 0.5625q0.328125 0.125 1.890625 0.546875q2.265625 0.609375 3.15625 1.0q0.90625 0.390625 1.40625 1.125q0.515625 0.734375 0.515625 1.828125q0 1.0625 -0.625 2.015625q-0.609375 0.9375 -1.796875 1.453125q-1.171875 0.515625 -2.65625 0.515625q-2.453125 0 -3.75 -1.015625q-1.28125 -1.03125 -1.640625 -3.03125zm12.9296875 8.625l-0.25 -2.015625q0.703125 0.203125 1.234375 0.203125q0.703125 0 1.125 -0.25q0.4375 -0.234375 0.703125 -0.65625q0.203125 -0.328125 0.65625 -1.59375q0.0625 -0.171875 0.1875 -0.515625l-4.78125 -12.640625l2.3125 0l2.625 7.296875q0.5 1.390625 0.90625 2.921875q0.375 -1.46875 0.875 -2.875l2.703125 -7.34375l2.140625 0l-4.796875 12.828125q-0.78125 2.078125 -1.203125 2.859375q-0.578125 1.0625 -1.3125 1.546875q-0.734375 0.5 -1.75 0.5q-0.625 0 -1.375 -0.265625zm11.3984375 -8.625l2.109375 -0.328125q0.1875 1.265625 1.0 1.953125q0.8125 0.671875 2.265625 0.671875q1.484375 0 2.1875 -0.59375q0.71875 -0.609375 0.71875 -1.421875q0 -0.71875 -0.640625 -1.140625q-0.4375 -0.28125 -2.171875 -0.71875q-2.359375 -0.59375 -3.265625 -1.03125q-0.90625 -0.4375 -1.375 -1.203125q-0.46875 -0.765625 -0.46875 -1.6875q0 -0.84375 0.375 -1.5625q0.390625 -0.71875 1.0625 -1.1875q0.5 -0.375 1.359375 -0.625q0.859375 -0.265625 1.84375 -0.265625q1.484375 0 2.609375 0.4375q1.125 0.421875 1.65625 1.15625q0.53125 0.734375 0.734375 1.953125l-2.09375 0.28125q-0.140625 -0.96875 -0.828125 -1.515625q-0.671875 -0.546875 -1.921875 -0.546875q-1.46875 0 -2.109375 0.484375q-0.625 0.484375 -0.625 1.140625q0 0.421875 0.265625 0.75q0.25 0.34375 0.8125 0.5625q0.328125 0.125 1.890625 0.546875q2.265625 0.609375 3.15625 1.0q0.90625 0.390625 1.40625 1.125q0.515625 0.734375 0.515625 1.828125q0 1.0625 -0.625 2.015625q-0.609375 0.9375 -1.796875 1.453125q-1.171875 0.515625 -2.65625 0.515625q-2.453125 0 -3.75 -1.015625q-1.28125 -1.03125 -1.640625 -3.03125zm17.679688 1.859375l0.3125 1.875q-0.90625 0.203125 -1.609375 0.203125q-1.171875 0 -1.8125 -0.359375q-0.640625 -0.375 -0.90625 -0.96875q-0.25 -0.609375 -0.25 -2.53125l0 -7.265625l-1.578125 0l0 -1.65625l1.578125 0l0 -3.125l2.125 -1.28125l0 4.40625l2.140625 0l0 1.65625l-2.140625 0l0 7.375q0 0.921875 0.109375 1.1875q0.109375 0.25 0.359375 0.40625q0.265625 0.15625 0.734375 0.15625q0.359375 0 0.9375 -0.078125zm10.727905 -2.15625l2.21875 0.265625q-0.53125 1.9375 -1.953125 3.015625q-1.40625 1.0625 -3.59375 1.0625q-2.765625 0 -4.390625 -1.703125q-1.625 -1.703125 -1.625 -4.78125q0 -3.1875 1.640625 -4.9375q1.640625 -1.765625 4.25 -1.765625q2.53125 0 4.125 1.734375q1.609375 1.71875 1.609375 4.84375q0 0.1875 0 0.5625l-9.421875 0q0.125 2.078125 1.171875 3.1875q1.0625 1.109375 2.640625 1.109375q1.1875 0 2.015625 -0.609375q0.828125 -0.625 1.3125 -1.984375zm-7.015625 -3.453125l7.046875 0q-0.140625 -1.59375 -0.8125 -2.390625q-1.015625 -1.234375 -2.640625 -1.234375q-1.484375 0 -2.484375 0.984375q-1.0 0.984375 -1.109375 2.640625zm11.920776 7.515625l0 -12.609375l1.90625 0l0 1.765625q0.59375 -0.921875 1.578125 -1.484375q0.984375 -0.578125 2.25 -0.578125q1.40625 0 2.296875 0.59375q0.890625 0.578125 1.265625 1.625q1.5 -2.21875 3.890625 -2.21875q1.875 0 2.890625 1.046875q1.015625 1.03125 1.015625 3.203125l0 8.65625l-2.125 0l0 -7.953125q0 -1.28125 -0.21875 -1.84375q-0.203125 -0.5625 -0.75 -0.90625q-0.546875 -0.34375 -1.28125 -0.34375q-1.328125 0 -2.21875 0.890625q-0.875 0.875 -0.875 2.828125l0 7.328125l-2.140625 0l0 -8.203125q0 -1.421875 -0.53125 -2.125q-0.515625 -0.71875 -1.703125 -0.71875q-0.890625 0 -1.65625 0.484375q-0.765625 0.46875 -1.125 1.390625q-0.34375 0.90625 -0.34375 2.625l0 6.546875l-2.125 0z" fill-rule="nonzero"/><path fill="#cfe2f3" d="m206.97581 54.502975l0 0c0 -16.200676 13.13324 -29.333918 29.333923 -29.333918l117.33217 0l0 0c7.779846 0 15.241028 3.0905285 20.742218 8.591707c5.5011597 5.501175 8.591705 12.962372 8.591705 20.74221l0 153.8991c0 16.200668 -13.13324 29.333923 -29.333923 29.333923l-117.33217 0c-16.200684 0 -29.333923 -13.133255 -29.333923 -29.333923z" fill-rule="evenodd"/><path stroke="#000000" stroke-width="0.5380577427821522" stroke-linejoin="round" stroke-linecap="butt" d="m206.97581 54.502975l0 0c0 -16.200676 13.13324 -29.333918 29.333923 -29.333918l117.33217 0l0 0c7.779846 0 15.241028 3.0905285 20.742218 8.591707c5.5011597 5.501175 8.591705 12.962372 8.591705 20.74221l0 153.8991c0 16.200668 -13.13324 29.333923 -29.333923 29.333923l-117.33217 0c-16.200684 0 -29.333923 -13.133255 -29.333923 -29.333923z" fill-rule="evenodd"/><path fill="#000000" d="m248.03067 192.26866l1.71875 -0.15625q0.125 1.03125 0.5625 1.703125q0.453125 0.65625 1.390625 1.078125q0.953125 0.40625 2.140625 0.40625q1.046875 0 1.84375 -0.3125q0.796875 -0.3125 1.1875 -0.84375q0.390625 -0.546875 0.390625 -1.1875q0 -0.65625 -0.375 -1.140625q-0.375 -0.484375 -1.234375 -0.8125q-0.5625 -0.21875 -2.46875 -0.671875q-1.90625 -0.46875 -2.671875 -0.875q-0.984375 -0.515625 -1.484375 -1.28125q-0.484375 -0.78125 -0.484375 -1.734375q0 -1.046875 0.59375 -1.953125q0.59375 -0.90625 1.734375 -1.375q1.15625 -0.484375 2.546875 -0.484375q1.546875 0 2.71875 0.5q1.171875 0.5 1.796875 1.46875q0.640625 0.953125 0.6875 2.171875l-1.75 0.125q-0.15625 -1.3125 -0.96875 -1.96875q-0.8125 -0.671875 -2.40625 -0.671875q-1.65625 0 -2.421875 0.609375q-0.765625 0.609375 -0.765625 1.46875q0 0.734375 0.546875 1.21875q0.53125 0.484375 2.75 1.0q2.234375 0.5 3.0625 0.875q1.21875 0.546875 1.78125 1.40625q0.578125 0.859375 0.578125 1.96875q0 1.109375 -0.625 2.09375q-0.625 0.96875 -1.8125 1.515625q-1.1875 0.53125 -2.671875 0.53125q-1.875 0 -3.15625 -0.546875q-1.265625 -0.546875 -1.984375 -1.640625q-0.71875 -1.109375 -0.75 -2.484375zm19.829193 0.765625l1.671875 0.21875q-0.265625 1.71875 -1.40625 2.703125q-1.125 0.96875 -2.765625 0.96875q-2.0625 0 -3.3125 -1.34375q-1.25 -1.34375 -1.25 -3.84375q0 -1.625 0.53125 -2.84375q0.546875 -1.21875 1.640625 -1.828125q1.109375 -0.609375 2.40625 -0.609375q1.625 0 2.65625 0.828125q1.046875 0.828125 1.34375 2.34375l-1.65625 0.25q-0.234375 -1.0 -0.84375 -1.515625q-0.59375 -0.515625 -1.4375 -0.515625q-1.28125 0 -2.09375 0.921875q-0.796875 0.921875 -0.796875 2.921875q0 2.015625 0.765625 2.9375q0.78125 0.90625 2.03125 0.90625q1.0 0 1.671875 -0.609375q0.671875 -0.609375 0.84375 -1.890625zm3.1328125 3.671875l0 -13.828125l1.6875 0l0 4.953125q1.1875 -1.375 3.0 -1.375q1.125 0 1.9375 0.4375q0.828125 0.4375 1.171875 1.21875q0.359375 0.765625 0.359375 2.25l0 6.34375l-1.703125 0l0 -6.34375q0 -1.28125 -0.546875 -1.859375q-0.546875 -0.578125 -1.5625 -0.578125q-0.75 0 -1.421875 0.390625q-0.65625 0.390625 -0.953125 1.0625q-0.28125 0.671875 -0.28125 1.84375l0 5.484375l-1.6875 0zm17.608765 -3.234375l1.75 0.21875q-0.421875 1.546875 -1.546875 2.390625q-1.109375 0.84375 -2.859375 0.84375q-2.203125 0 -3.5 -1.34375q-1.28125 -1.359375 -1.28125 -3.796875q0 -2.53125 1.296875 -3.921875q1.3125 -1.40625 3.390625 -1.40625q2.015625 0 3.28125 1.375q1.28125 1.359375 1.28125 3.84375q0 0.15625 -0.015625 0.453125l-7.46875 0q0.09375 1.65625 0.921875 2.53125q0.84375 0.875 2.109375 0.875q0.921875 0 1.578125 -0.484375q0.671875 -0.5 1.0625 -1.578125zm-5.578125 -2.734375l5.59375 0q-0.109375 -1.265625 -0.640625 -1.90625q-0.8125 -0.984375 -2.109375 -0.984375q-1.171875 0 -1.96875 0.796875q-0.796875 0.78125 -0.875 2.09375zm15.96814 5.96875l0 -1.265625q-0.953125 1.484375 -2.8125 1.484375q-1.1875 0 -2.203125 -0.65625q-1.0 -0.65625 -1.5625 -1.84375q-0.546875 -1.1875 -0.546875 -2.71875q0 -1.5 0.5 -2.71875q0.5 -1.234375 1.5 -1.875q1.0 -0.65625 2.234375 -0.65625q0.90625 0 1.609375 0.390625q0.71875 0.375 1.15625 0.984375l0 -4.953125l1.703125 0l0 13.828125l-1.578125 0zm-5.375 -5.0q0 1.921875 0.8125 2.875q0.8125 0.953125 1.921875 0.953125q1.109375 0 1.890625 -0.90625q0.78125 -0.90625 0.78125 -2.78125q0 -2.0625 -0.796875 -3.015625q-0.796875 -0.96875 -1.953125 -0.96875q-1.140625 0 -1.90625 0.921875q-0.75 0.921875 -0.75 2.921875zm16.18689 5.0l0 -1.46875q-1.171875 1.6875 -3.1875 1.6875q-0.875 0 -1.65625 -0.328125q-0.765625 -0.34375 -1.140625 -0.859375q-0.375 -0.515625 -0.515625 -1.265625q-0.109375 -0.5 -0.109375 -1.578125l0 -6.203125l1.703125 0l0 5.546875q0 1.328125 0.09375 1.796875q0.171875 0.671875 0.6875 1.0625q0.515625 0.375 1.28125 0.375q0.765625 0 1.4375 -0.390625q0.671875 -0.390625 0.9375 -1.0625q0.28125 -0.6875 0.28125 -1.96875l0 -5.359375l1.703125 0l0 10.015625l-1.515625 0zm4.1400146 0l0 -13.828125l1.703125 0l0 13.828125l-1.703125 0zm4.340973 -11.875l0 -1.953125l1.703125 0l0 1.953125l-1.703125 0zm0 11.875l0 -10.015625l1.703125 0l0 10.015625l-1.703125 0zm4.294098 0l0 -10.015625l1.515625 0l0 1.421875q1.109375 -1.65625 3.203125 -1.65625q0.90625 0 1.65625 0.328125q0.765625 0.328125 1.140625 0.859375q0.375 0.515625 0.53125 1.25q0.09375 0.46875 0.09375 1.65625l0 6.15625l-1.703125 0l0 -6.09375q0 -1.046875 -0.203125 -1.546875q-0.1875 -0.515625 -0.703125 -0.828125q-0.5 -0.3125 -1.171875 -0.3125q-1.09375 0 -1.890625 0.6875q-0.78125 0.6875 -0.78125 2.625l0 5.46875l-1.6875 0zm10.43689 0.828125l1.640625 0.25q0.109375 0.765625 0.578125 1.109375q0.640625 0.46875 1.734375 0.46875q1.171875 0 1.8125 -0.46875q0.640625 -0.46875 0.875 -1.3125q0.125 -0.53125 0.125 -2.1875q-1.125 1.3125 -2.78125 1.3125q-2.0625 0 -3.203125 -1.484375q-1.125 -1.5 -1.125 -3.578125q0 -1.4375 0.515625 -2.640625q0.515625 -1.21875 1.5 -1.875q1.0 -0.671875 2.328125 -0.671875q1.765625 0 2.921875 1.4375l0 -1.203125l1.5625 0l0 8.65625q0 2.34375 -0.484375 3.3125q-0.46875 0.984375 -1.5 1.546875q-1.03125 0.5625 -2.546875 0.5625q-1.78125 0 -2.890625 -0.8125q-1.109375 -0.796875 -1.0625 -2.421875zm1.40625 -6.015625q0 1.96875 0.78125 2.875q0.78125 0.90625 1.953125 0.90625q1.171875 0 1.96875 -0.890625q0.796875 -0.90625 0.796875 -2.84375q0 -1.828125 -0.828125 -2.765625q-0.8125 -0.9375 -1.953125 -0.9375q-1.140625 0 -1.9375 0.921875q-0.78125 0.921875 -0.78125 2.734375z" fill-rule="nonzero"/><path fill="#000000" d="m282.17032 214.86241l1.828125 0.453125q-0.5625 2.25 -2.0625 3.4375q-1.5 1.1875 -3.65625 1.1875q-2.234375 0 -3.640625 -0.90625q-1.40625 -0.90625 -2.140625 -2.640625q-0.71875 -1.734375 -0.71875 -3.703125q0 -2.171875 0.8125 -3.78125q0.828125 -1.609375 2.34375 -2.4375q1.53125 -0.84375 3.375 -0.84375q2.0625 0 3.484375 1.0625q1.421875 1.0625 1.96875 2.96875l-1.796875 0.4375q-0.484375 -1.515625 -1.40625 -2.203125q-0.90625 -0.6875 -2.296875 -0.6875q-1.59375 0 -2.671875 0.765625q-1.0625 0.765625 -1.5 2.046875q-0.4375 1.28125 -0.4375 2.65625q0 1.765625 0.515625 3.078125q0.515625 1.3125 1.59375 1.96875q1.09375 0.65625 2.359375 0.65625q1.546875 0 2.609375 -0.890625q1.0625 -0.890625 1.4375 -2.625zm3.8019104 8.703125l-0.1875 -1.59375q0.546875 0.15625 0.96875 0.15625q0.5625 0 0.90625 -0.203125q0.34375 -0.1875 0.546875 -0.515625q0.171875 -0.265625 0.53125 -1.265625q0.046875 -0.140625 0.140625 -0.421875l-3.796875 -10.03125l1.828125 0l2.09375 5.796875q0.40625 1.109375 0.71875 2.328125q0.296875 -1.171875 0.703125 -2.296875l2.140625 -5.828125l1.703125 0l-3.8125 10.1875q-0.625 1.65625 -0.953125 2.265625q-0.453125 0.84375 -1.046875 1.234375q-0.578125 0.390625 -1.390625 0.390625q-0.5 0 -1.09375 -0.203125zm16.273438 -7.53125l1.671875 0.21875q-0.265625 1.71875 -1.40625 2.703125q-1.125 0.96875 -2.765625 0.96875q-2.0625 0 -3.3125 -1.34375q-1.25 -1.34375 -1.25 -3.84375q0 -1.625 0.53125 -2.84375q0.546875 -1.21875 1.640625 -1.828125q1.109375 -0.609375 2.40625 -0.609375q1.625 0 2.65625 0.828125q1.046875 0.828125 1.34375 2.34375l-1.65625 0.25q-0.234375 -1.0 -0.84375 -1.515625q-0.59375 -0.515625 -1.4375 -0.515625q-1.28125 0 -2.09375 0.921875q-0.796875 0.921875 -0.796875 2.921875q0 2.015625 0.765625 2.9375q0.78125 0.90625 2.03125 0.90625q1.0 0 1.671875 -0.609375q0.671875 -0.609375 0.84375 -1.890625zm3.0859375 3.671875l0 -13.828125l1.703125 0l0 13.828125l-1.703125 0zm11.200348 -3.234375l1.75 0.21875q-0.421875 1.546875 -1.546875 2.390625q-1.109375 0.84375 -2.859375 0.84375q-2.203125 0 -3.5 -1.34375q-1.28125 -1.359375 -1.28125 -3.796875q0 -2.53125 1.296875 -3.921875q1.3125 -1.40625 3.390625 -1.40625q2.015625 0 3.28125 1.375q1.28125 1.359375 1.28125 3.84375q0 0.15625 -0.015625 0.453125l-7.46875 0q0.09375 1.65625 0.921875 2.53125q0.84375 0.875 2.109375 0.875q0.921875 0 1.578125 -0.484375q0.671875 -0.5 1.0625 -1.578125zm-5.578125 -2.734375l5.59375 0q-0.109375 -1.265625 -0.640625 -1.90625q-0.8125 -0.984375 -2.109375 -0.984375q-1.171875 0 -1.96875 0.796875q-0.796875 0.78125 -0.875 2.09375z" fill-rule="nonzero"/><path fill="#cfe2f3" d="m218.0997 61.906345l0 0c0 -16.20068 13.13324 -29.333923 29.333908 -29.333923l117.33217 0l0 0c7.779846 0 15.241028 3.0905304 20.742218 8.591709c5.5011597 5.501175 8.591705 12.962372 8.591705 20.742214l0 153.8991c0 16.200668 -13.13324 29.333923 -29.333923 29.333923l-117.33217 0c-16.200668 0 -29.333908 -13.133255 -29.333908 -29.333923z" fill-rule="evenodd"/><path stroke="#000000" stroke-width="0.5380577427821522" stroke-linejoin="round" stroke-linecap="butt" d="m218.0997 61.906345l0 0c0 -16.20068 13.13324 -29.333923 29.333908 -29.333923l117.33217 0l0 0c7.779846 0 15.241028 3.0905304 20.742218 8.591709c5.5011597 5.501175 8.591705 12.962372 8.591705 20.742214l0 153.8991c0 16.200668 -13.13324 29.333923 -29.333923 29.333923l-117.33217 0c-16.200668 0 -29.333908 -13.133255 -29.333908 -29.333923z" fill-rule="evenodd"/><path fill="#000000" d="m259.15454 199.67203l1.71875 -0.15625q0.125 1.03125 0.5625 1.703125q0.453125 0.65625 1.390625 1.078125q0.953125 0.40625 2.140625 0.40625q1.046875 0 1.84375 -0.3125q0.796875 -0.3125 1.1875 -0.84375q0.390625 -0.546875 0.390625 -1.1875q0 -0.65625 -0.375 -1.140625q-0.375 -0.484375 -1.234375 -0.8125q-0.5625 -0.21875 -2.46875 -0.671875q-1.90625 -0.46875 -2.671875 -0.875q-0.984375 -0.515625 -1.484375 -1.28125q-0.484375 -0.78125 -0.484375 -1.734375q0 -1.046875 0.59375 -1.953125q0.59375 -0.90625 1.734375 -1.375q1.15625 -0.484375 2.546875 -0.484375q1.546875 0 2.71875 0.5q1.171875 0.5 1.796875 1.46875q0.640625 0.953125 0.6875 2.171875l-1.75 0.125q-0.15625 -1.3125 -0.96875 -1.96875q-0.8125 -0.671875 -2.40625 -0.671875q-1.65625 0 -2.421875 0.609375q-0.765625 0.609375 -0.765625 1.46875q0 0.734375 0.546875 1.21875q0.53125 0.484375 2.75 1.0q2.234375 0.5 3.0625 0.875q1.21875 0.546875 1.78125 1.40625q0.578125 0.859375 0.578125 1.96875q0 1.109375 -0.625 2.09375q-0.625 0.96875 -1.8125 1.515625q-1.1875 0.53125 -2.671875 0.53125q-1.875 0 -3.15625 -0.546875q-1.265625 -0.546875 -1.984375 -1.640625q-0.71875 -1.109375 -0.75 -2.484375zm19.829224 0.765625l1.671875 0.21875q-0.265625 1.71875 -1.40625 2.703125q-1.125 0.96875 -2.765625 0.96875q-2.0625 0 -3.3125 -1.34375q-1.25 -1.34375 -1.25 -3.84375q0 -1.625 0.53125 -2.84375q0.546875 -1.21875 1.640625 -1.828125q1.109375 -0.609375 2.40625 -0.609375q1.625 0 2.65625 0.828125q1.046875 0.828125 1.34375 2.34375l-1.65625 0.25q-0.234375 -1.0 -0.84375 -1.515625q-0.59375 -0.515625 -1.4375 -0.515625q-1.28125 0 -2.09375 0.921875q-0.796875 0.921875 -0.796875 2.921875q0 2.015625 0.765625 2.9375q0.78125 0.90625 2.03125 0.90625q1.0 0 1.671875 -0.609375q0.671875 -0.609375 0.84375 -1.890625zm3.1328125 3.671875l0 -13.828125l1.6875 0l0 4.953125q1.1875 -1.375 3.0 -1.375q1.125 0 1.9375 0.4375q0.828125 0.4375 1.171875 1.21875q0.359375 0.765625 0.359375 2.25l0 6.34375l-1.703125 0l0 -6.34375q0 -1.28125 -0.546875 -1.859375q-0.546875 -0.578125 -1.5625 -0.578125q-0.75 0 -1.421875 0.390625q-0.65625 0.390625 -0.953125 1.0625q-0.28125 0.671875 -0.28125 1.84375l0 5.484375l-1.6875 0zm17.608765 -3.234375l1.75 0.21875q-0.421875 1.546875 -1.546875 2.390625q-1.109375 0.84375 -2.859375 0.84375q-2.203125 0 -3.5 -1.34375q-1.28125 -1.359375 -1.28125 -3.796875q0 -2.53125 1.296875 -3.921875q1.3125 -1.40625 3.390625 -1.40625q2.015625 0 3.28125 1.375q1.28125 1.359375 1.28125 3.84375q0 0.15625 -0.015625 0.453125l-7.46875 0q0.09375 1.65625 0.921875 2.53125q0.84375 0.875 2.109375 0.875q0.921875 0 1.578125 -0.484375q0.671875 -0.5 1.0625 -1.578125zm-5.578125 -2.734375l5.59375 0q-0.109375 -1.265625 -0.640625 -1.90625q-0.8125 -0.984375 -2.109375 -0.984375q-1.171875 0 -1.96875 0.796875q-0.796875 0.78125 -0.875 2.09375zm15.96814 5.96875l0 -1.265625q-0.953125 1.484375 -2.8125 1.484375q-1.1875 0 -2.203125 -0.65625q-1.0 -0.65625 -1.5625 -1.84375q-0.546875 -1.1875 -0.546875 -2.71875q0 -1.5 0.5 -2.71875q0.5 -1.234375 1.5 -1.875q1.0 -0.65625 2.234375 -0.65625q0.90625 0 1.609375 0.390625q0.71875 0.375 1.15625 0.984375l0 -4.953125l1.703125 0l0 13.828125l-1.578125 0zm-5.375 -5.0q0 1.921875 0.8125 2.875q0.8125 0.953125 1.921875 0.953125q1.109375 0 1.890625 -0.90625q0.78125 -0.90625 0.78125 -2.78125q0 -2.0625 -0.796875 -3.015625q-0.796875 -0.96875 -1.953125 -0.96875q-1.140625 0 -1.90625 0.921875q-0.75 0.921875 -0.75 2.921875zm16.18689 5.0l0 -1.46875q-1.171875 1.6875 -3.1875 1.6875q-0.875 0 -1.65625 -0.328125q-0.765625 -0.34375 -1.140625 -0.859375q-0.375 -0.515625 -0.515625 -1.265625q-0.109375 -0.5 -0.109375 -1.578125l0 -6.203125l1.703125 0l0 5.546875q0 1.328125 0.09375 1.796875q0.171875 0.671875 0.6875 1.0625q0.515625 0.375 1.28125 0.375q0.765625 0 1.4375 -0.390625q0.671875 -0.390625 0.9375 -1.0625q0.28125 -0.6875 0.28125 -1.96875l0 -5.359375l1.703125 0l0 10.015625l-1.515625 0zm4.1400146 0l0 -13.828125l1.703125 0l0 13.828125l-1.703125 0zm4.340973 -11.875l0 -1.953125l1.703125 0l0 1.953125l-1.703125 0zm0 11.875l0 -10.015625l1.703125 0l0 10.015625l-1.703125 0zm4.294098 0l0 -10.015625l1.515625 0l0 1.421875q1.109375 -1.65625 3.203125 -1.65625q0.90625 0 1.65625 0.328125q0.765625 0.328125 1.140625 0.859375q0.375 0.515625 0.53125 1.25q0.09375 0.46875 0.09375 1.65625l0 6.15625l-1.703125 0l0 -6.09375q0 -1.046875 -0.203125 -1.546875q-0.1875 -0.515625 -0.703125 -0.828125q-0.5 -0.3125 -1.171875 -0.3125q-1.09375 0 -1.890625 0.6875q-0.78125 0.6875 -0.78125 2.625l0 5.46875l-1.6875 0zm10.43689 0.828125l1.640625 0.25q0.109375 0.765625 0.578125 1.109375q0.640625 0.46875 1.734375 0.46875q1.171875 0 1.8125 -0.46875q0.640625 -0.46875 0.875 -1.3125q0.125 -0.53125 0.125 -2.1875q-1.125 1.3125 -2.78125 1.3125q-2.0625 0 -3.203125 -1.484375q-1.125 -1.5 -1.125 -3.578125q0 -1.4375 0.515625 -2.640625q0.515625 -1.21875 1.5 -1.875q1.0 -0.671875 2.328125 -0.671875q1.765625 0 2.921875 1.4375l0 -1.203125l1.5625 0l0 8.65625q0 2.34375 -0.484375 3.3125q-0.46875 0.984375 -1.5 1.546875q-1.03125 0.5625 -2.546875 0.5625q-1.78125 0 -2.890625 -0.8125q-1.109375 -0.796875 -1.0625 -2.421875zm1.40625 -6.015625q0 1.96875 0.78125 2.875q0.78125 0.90625 1.953125 0.90625q1.171875 0 1.96875 -0.890625q0.796875 -0.90625 0.796875 -2.84375q0 -1.828125 -0.828125 -2.765625q-0.8125 -0.9375 -1.953125 -0.9375q-1.140625 0 -1.9375 0.921875q-0.78125 0.921875 -0.78125 2.734375z" fill-rule="nonzero"/><path fill="#000000" d="m293.2942 222.26578l1.828125 0.453125q-0.5625 2.25 -2.0625 3.4375q-1.5 1.1875 -3.65625 1.1875q-2.234375 0 -3.640625 -0.90625q-1.40625 -0.90625 -2.140625 -2.640625q-0.71875 -1.734375 -0.71875 -3.703125q0 -2.171875 0.8125 -3.78125q0.828125 -1.609375 2.34375 -2.4375q1.53125 -0.84375 3.375 -0.84375q2.0625 0 3.484375 1.0625q1.421875 1.0625 1.96875 2.96875l-1.796875 0.4375q-0.484375 -1.515625 -1.40625 -2.203125q-0.90625 -0.6875 -2.296875 -0.6875q-1.59375 0 -2.671875 0.765625q-1.0625 0.765625 -1.5 2.046875q-0.4375 1.28125 -0.4375 2.65625q0 1.765625 0.515625 3.078125q0.515625 1.3125 1.59375 1.96875q1.09375 0.65625 2.359375 0.65625q1.546875 0 2.609375 -0.890625q1.0625 -0.890625 1.4375 -2.625zm3.8019104 8.703125l-0.1875 -1.59375q0.546875 0.15625 0.96875 0.15625q0.5625 0 0.90625 -0.203125q0.34375 -0.1875 0.546875 -0.515625q0.171875 -0.265625 0.53125 -1.265625q0.046875 -0.140625 0.140625 -0.421875l-3.796875 -10.03125l1.828125 0l2.09375 5.796875q0.40625 1.109375 0.71875 2.328125q0.296875 -1.171875 0.703125 -2.296875l2.140625 -5.828125l1.703125 0l-3.8125 10.1875q-0.625 1.65625 -0.953125 2.265625q-0.453125 0.84375 -1.046875 1.234375q-0.578125 0.390625 -1.390625 0.390625q-0.5 0 -1.09375 -0.203125zm16.273438 -7.53125l1.671875 0.21875q-0.265625 1.71875 -1.40625 2.703125q-1.125 0.96875 -2.765625 0.96875q-2.0625 0 -3.3125 -1.34375q-1.25 -1.34375 -1.25 -3.84375q0 -1.625 0.53125 -2.84375q0.546875 -1.21875 1.640625 -1.828125q1.109375 -0.609375 2.40625 -0.609375q1.625 0 2.65625 0.828125q1.046875 0.828125 1.34375 2.34375l-1.65625 0.25q-0.234375 -1.0 -0.84375 -1.515625q-0.59375 -0.515625 -1.4375 -0.515625q-1.28125 0 -2.09375 0.921875q-0.796875 0.921875 -0.796875 2.921875q0 2.015625 0.765625 2.9375q0.78125 0.90625 2.03125 0.90625q1.0 0 1.671875 -0.609375q0.671875 -0.609375 0.84375 -1.890625zm3.0859375 3.671875l0 -13.828125l1.703125 0l0 13.828125l-1.703125 0zm11.200348 -3.234375l1.75 0.21875q-0.421875 1.546875 -1.546875 2.390625q-1.109375 0.84375 -2.859375 0.84375q-2.203125 0 -3.5 -1.34375q-1.28125 -1.359375 -1.28125 -3.796875q0 -2.53125 1.296875 -3.921875q1.3125 -1.40625 3.390625 -1.40625q2.015625 0 3.28125 1.375q1.28125 1.359375 1.28125 3.84375q0 0.15625 -0.015625 0.453125l-7.46875 0q0.09375 1.65625 0.921875 2.53125q0.84375 0.875 2.109375 0.875q0.921875 0 1.578125 -0.484375q0.671875 -0.5 1.0625 -1.578125zm-5.578125 -2.734375l5.59375 0q-0.109375 -1.265625 -0.640625 -1.90625q-0.8125 -0.984375 -2.109375 -0.984375q-1.171875 0 -1.96875 0.796875q-0.796875 0.78125 -0.875 2.09375z" fill-rule="nonzero"/><path fill="#cfe2f3" d="m227.53694 71.87899l0 0c0 -16.200672 13.13324 -29.333916 29.333908 -29.333916l117.332184 0l0 0c7.7798157 0 15.241028 3.0905266 20.742218 8.591705c5.5011597 5.501175 8.591705 12.962372 8.591705 20.74221l0 153.89908c0 16.200684 -13.13327 29.333923 -29.333923 29.333923l-117.332184 0c-16.200668 0 -29.333908 -13.13324 -29.333908 -29.333923z" fill-rule="evenodd"/><path stroke="#000000" stroke-width="0.5380577427821522" stroke-linejoin="round" stroke-linecap="butt" d="m227.53694 71.87899l0 0c0 -16.200672 13.13324 -29.333916 29.333908 -29.333916l117.332184 0l0 0c7.7798157 0 15.241028 3.0905266 20.742218 8.591705c5.5011597 5.501175 8.591705 12.962372 8.591705 20.74221l0 153.89908c0 16.200684 -13.13327 29.333923 -29.333923 29.333923l-117.332184 0c-16.200668 0 -29.333908 -13.13324 -29.333908 -29.333923z" fill-rule="evenodd"/><path fill="#000000" d="m289.62878 237.08218l0 -13.828125l5.21875 0q1.390625 0 2.109375 0.125q1.015625 0.171875 1.703125 0.65625q0.703125 0.46875 1.109375 1.328125q0.421875 0.859375 0.421875 1.890625q0 1.765625 -1.125 2.984375q-1.109375 1.21875 -4.046875 1.21875l-3.546875 0l0 5.625l-1.84375 0zm1.84375 -7.25l3.578125 0q1.765625 0 2.515625 -0.65625q0.75 -0.671875 0.75 -1.875q0 -0.859375 -0.453125 -1.46875q-0.4375 -0.625 -1.15625 -0.828125q-0.453125 -0.125 -1.703125 -0.125l-3.53125 0l0 4.953125zm10.813568 7.25l0 -10.015625l1.53125 0l0 1.515625q0.59375 -1.0625 1.078125 -1.40625q0.5 -0.34375 1.09375 -0.34375q0.859375 0 1.75 0.546875l-0.59375 1.578125q-0.609375 -0.375 -1.234375 -0.375q-0.5625 0 -1.015625 0.34375q-0.4375 0.328125 -0.625 0.921875q-0.28125 0.90625 -0.28125 1.984375l0 5.25l-1.703125 0zm5.827057 -5.015625q0 -2.78125 1.546875 -4.125q1.296875 -1.109375 3.15625 -1.109375q2.0625 0 3.375 1.359375q1.3125 1.34375 1.3125 3.734375q0 1.9375 -0.578125 3.046875q-0.578125 1.109375 -1.6875 1.71875q-1.109375 0.609375 -2.421875 0.609375q-2.109375 0 -3.40625 -1.34375q-1.296875 -1.34375 -1.296875 -3.890625zm1.75 0q0 1.921875 0.828125 2.890625q0.84375 0.953125 2.125 0.953125q1.265625 0 2.09375 -0.953125q0.84375 -0.96875 0.84375 -2.9375q0 -1.859375 -0.84375 -2.8125q-0.84375 -0.96875 -2.09375 -0.96875q-1.28125 0 -2.125 0.953125q-0.828125 0.953125 -0.828125 2.875zm10.046265 5.015625l0 -8.703125l-1.515625 0l0 -1.3125l1.515625 0l0 -1.078125q0 -1.0 0.171875 -1.5q0.25 -0.65625 0.859375 -1.0625q0.625 -0.421875 1.734375 -0.421875q0.71875 0 1.59375 0.171875l-0.265625 1.484375q-0.53125 -0.09375 -1.0 -0.09375q-0.765625 0 -1.09375 0.328125q-0.3125 0.328125 -0.3125 1.234375l0 0.9375l1.953125 0l0 1.3125l-1.953125 0l0 8.703125l-1.6875 0zm4.9637146 -11.875l0 -1.953125l1.703125 0l0 1.953125l-1.703125 0zm0 11.875l0 -10.015625l1.703125 0l0 10.015625l-1.703125 0zm4.247223 0l0 -13.828125l1.703125 0l0 13.828125l-1.703125 0zm11.200348 -3.234375l1.75 0.21875q-0.421875 1.546875 -1.546875 2.390625q-1.109375 0.84375 -2.859375 0.84375q-2.203125 0 -3.5 -1.34375q-1.28125 -1.359375 -1.28125 -3.796875q0 -2.53125 1.296875 -3.921875q1.3125 -1.40625 3.390625 -1.40625q2.015625 0 3.28125 1.375q1.28125 1.359375 1.28125 3.84375q0 0.15625 -0.015625 0.453125l-7.46875 0q0.09375 1.65625 0.921875 2.53125q0.84375 0.875 2.109375 0.875q0.921875 0 1.578125 -0.484375q0.671875 -0.5 1.0625 -1.578125zm-5.578125 -2.734375l5.59375 0q-0.109375 -1.265625 -0.640625 -1.90625q-0.8125 -0.984375 -2.109375 -0.984375q-1.171875 0 -1.96875 0.796875q-0.796875 0.78125 -0.875 2.09375z" fill-rule="nonzero"/><path fill="#000000" fill-opacity="0.0" d="m227.53694 148.82854l176.00002 0" fill-rule="evenodd"/><path stroke="#000000" stroke-width="1.9606299212598426" stroke-linejoin="round" stroke-linecap="butt" stroke-dasharray="7.84251968503937,5.881889763779528" d="m227.53694 148.82854l176.00002 0" fill-rule="evenodd"/><path fill="#cfe2f3" d="m227.53694 293.65155l0 0c0 -16.200653 13.13324 -29.333923 29.333908 -29.333923l117.332184 0l0 0c7.7798157 0 15.241028 3.0905457 20.742218 8.591736c5.5011597 5.5011597 8.591705 12.962372 8.591705 20.742188l0 162.49753c0 16.200684 -13.13327 29.333923 -29.333923 29.333923l-117.332184 0c-16.200668 0 -29.333908 -13.13324 -29.333908 -29.333923z" fill-rule="evenodd"/><path stroke="#000000" stroke-width="0.5380577427821522" stroke-linejoin="round" stroke-linecap="butt" d="m227.53694 293.65155l0 0c0 -16.200653 13.13324 -29.333923 29.333908 -29.333923l117.332184 0l0 0c7.7798157 0 15.241028 3.0905457 20.742218 8.591736c5.5011597 5.5011597 8.591705 12.962372 8.591705 20.742188l0 162.49753c0 16.200684 -13.13327 29.333923 -29.333923 29.333923l-117.332184 0c-16.200668 0 -29.333908 -13.13324 -29.333908 -29.333923z" fill-rule="evenodd"/><path fill="#000000" d="m289.62878 467.45316l0 -13.828125l5.21875 0q1.390625 0 2.109375 0.125q1.015625 0.171875 1.703125 0.65625q0.703125 0.46875 1.109375 1.328125q0.421875 0.859375 0.421875 1.890625q0 1.765625 -1.125 2.984375q-1.109375 1.21875 -4.046875 1.21875l-3.546875 0l0 5.625l-1.84375 0zm1.84375 -7.25l3.578125 0q1.765625 0 2.515625 -0.65625q0.75 -0.671875 0.75 -1.875q0 -0.859375 -0.453125 -1.46875q-0.4375 -0.625 -1.15625 -0.828125q-0.453125 -0.125 -1.703125 -0.125l-3.53125 0l0 4.953125zm10.813568 7.25l0 -10.015625l1.53125 0l0 1.515625q0.59375 -1.0625 1.078125 -1.40625q0.5 -0.34375 1.09375 -0.34375q0.859375 0 1.75 0.546875l-0.59375 1.578125q-0.609375 -0.375 -1.234375 -0.375q-0.5625 0 -1.015625 0.34375q-0.4375 0.328125 -0.625 0.921875q-0.28125 0.90625 -0.28125 1.984375l0 5.25l-1.703125 0zm5.827057 -5.015625q0 -2.78125 1.546875 -4.125q1.296875 -1.109375 3.15625 -1.109375q2.0625 0 3.375 1.359375q1.3125 1.34375 1.3125 3.734375q0 1.9375 -0.578125 3.046875q-0.578125 1.109375 -1.6875 1.71875q-1.109375 0.609375 -2.421875 0.609375q-2.109375 0 -3.40625 -1.34375q-1.296875 -1.34375 -1.296875 -3.890625zm1.75 0q0 1.921875 0.828125 2.890625q0.84375 0.953125 2.125 0.953125q1.265625 0 2.09375 -0.953125q0.84375 -0.96875 0.84375 -2.9375q0 -1.859375 -0.84375 -2.8125q-0.84375 -0.96875 -2.09375 -0.96875q-1.28125 0 -2.125 0.953125q-0.828125 0.953125 -0.828125 2.875zm10.046265 5.015625l0 -8.703125l-1.515625 0l0 -1.3125l1.515625 0l0 -1.078125q0 -1.0 0.171875 -1.5q0.25 -0.65625 0.859375 -1.0625q0.625 -0.421875 1.734375 -0.421875q0.71875 0 1.59375 0.171875l-0.265625 1.484375q-0.53125 -0.09375 -1.0 -0.09375q-0.765625 0 -1.09375 0.328125q-0.3125 0.328125 -0.3125 1.234375l0 0.9375l1.953125 0l0 1.3125l-1.953125 0l0 8.703125l-1.6875 0zm4.9637146 -11.875l0 -1.953125l1.703125 0l0 1.953125l-1.703125 0zm0 11.875l0 -10.015625l1.703125 0l0 10.015625l-1.703125 0zm4.247223 0l0 -13.828125l1.703125 0l0 13.828125l-1.703125 0zm11.200348 -3.234375l1.75 0.21875q-0.421875 1.546875 -1.546875 2.390625q-1.109375 0.84375 -2.859375 0.84375q-2.203125 0 -3.5 -1.34375q-1.28125 -1.359375 -1.28125 -3.796875q0 -2.53125 1.296875 -3.921875q1.3125 -1.40625 3.390625 -1.40625q2.015625 0 3.28125 1.375q1.28125 1.359375 1.28125 3.84375q0 0.15625 -0.015625 0.453125l-7.46875 0q0.09375 1.65625 0.921875 2.53125q0.84375 0.875 2.109375 0.875q0.921875 0 1.578125 -0.484375q0.671875 -0.5 1.0625 -1.578125zm-5.578125 -2.734375l5.59375 0q-0.109375 -1.265625 -0.640625 -1.90625q-0.8125 -0.984375 -2.109375 -0.984375q-1.171875 0 -1.96875 0.796875q-0.796875 0.78125 -0.875 2.09375z" fill-rule="nonzero"/><path fill="#000000" fill-opacity="0.0" d="m227.53694 374.90033l176.00002 0" fill-rule="evenodd"/><path stroke="#000000" stroke-width="1.9606299212598426" stroke-linejoin="round" stroke-linecap="butt" d="m227.53694 374.90033l176.00002 0" fill-rule="evenodd"/><path fill="#000000" fill-opacity="0.0" d="m403.53696 148.82854l51.018158 0l0 133.85826l69.73773 0" fill-rule="evenodd"/><path stroke="#000000" stroke-width="2.606299212598425" stroke-linejoin="round" stroke-linecap="butt" stroke-dasharray="10.4251968503937,7.818897637795276" d="m403.53696 148.82854l51.018158 0l0 133.85826l69.73773 0" fill-rule="evenodd"/><path fill="#000000" fill-opacity="0.0" d="m403.53696 374.90033l52.15326 0l0 -92.188995l68.60263 0" fill-rule="evenodd"/><path stroke="#000000" stroke-width="2.606299212598425" stroke-linejoin="round" stroke-linecap="butt" d="m403.53696 374.90033l52.15326 0l0 -92.188995l68.60263 0" fill-rule="evenodd"/><path fill="#000000" fill-opacity="0.0" d="m102.02855 282.69815l47.669388 0l0 -133.85826l77.84242 0" fill-rule="evenodd"/><path stroke="#000000" stroke-width="2.606299212598425" stroke-linejoin="round" stroke-linecap="butt" stroke-dasharray="10.4251968503937,7.818897637795276" d="m102.02855 282.69815l47.669388 0l0 -133.85826l77.84242 0" fill-rule="evenodd"/><path fill="#000000" fill-opacity="0.0" d="m102.02855 282.69815l47.669388 0l0 92.188995l77.84242 0" fill-rule="evenodd"/><path stroke="#000000" stroke-width="2.606299212598425" stroke-linejoin="round" stroke-linecap="butt" d="m102.02855 282.69815l47.669388 0l0 92.188995l77.84242 0" fill-rule="evenodd"/><path fill="#b6d7a8" d="m275.43542 277.8038l0 83.10239l-14.0 14.0l-13.999985 -14.0l0 -83.10239z" fill-rule="evenodd"/><path stroke="#000000" stroke-width="0.5380577427821522" stroke-linejoin="round" stroke-linecap="butt" d="m275.43542 277.8038l0 83.10239l-14.0 14.0l-13.999985 -14.0l0 -83.10239z" fill-rule="evenodd"/><path fill="#000000" d="m257.7158 310.629l7.609375 0l0 5.21875l-1.28125 0l0 -3.671875l-1.796875 0l0 3.171875l-1.296875 0l0 -3.171875l-3.234375 0l0 -1.546875zm6.265625 6.4841003l1.34375 0l0 1.453125l-1.34375 0l0 -1.453125zm-6.265625 0l5.515625 0l0 1.453125l-5.515625 0l0 -1.453125zm0 2.9562988l7.609375 0l0 1.453125l-7.609375 0l0 -1.453125zm5.515625 5.4875793l-1.15625 0l0 -1.0l-2.234375 0q-0.671875 0 -0.78125 0.03125q-0.109375 0.03125 -0.1875 0.125q-0.078125 0.109375 -0.078125 0.25q0 0.203125 0.140625 0.578125l-1.125 0.125q-0.21875 -0.5 -0.21875 -1.140625q0 -0.40625 0.125 -0.71875q0.140625 -0.3125 0.34375 -0.46875q0.21875 -0.140625 0.578125 -0.203125q0.25 -0.046875 1.03125 -0.046875l2.40625 0l0 -0.671875l1.15625 0l0 0.671875l1.09375 0l0.859375 1.46875l-1.953125 0l0 1.0zm-3.765625 4.199646l-0.234375 1.453125q-0.796875 -0.265625 -1.21875 -0.875q-0.421875 -0.609375 -0.421875 -1.515625q0 -1.4375 0.9375 -2.125q0.75 -0.546875 1.90625 -0.546875q1.375 0 2.140625 0.703125q0.78125 0.71875 0.78125 1.828125q0 1.21875 -0.8125 1.921875q-0.8125 0.71875 -2.484375 0.6875l0 -3.65625q-0.65625 0.015625 -1.015625 0.359375q-0.359375 0.34375 -0.359375 0.84375q0 0.34375 0.1875 0.578125q0.1875 0.234375 0.59375 0.34375zm1.484375 0.09375q0.625 -0.015625 0.953125 -0.328125q0.34375 -0.3125 0.34375 -0.765625q0 -0.46875 -0.359375 -0.78125q-0.34375 -0.3125 -0.9375 -0.3125l0 2.1875zm-3.234375 4.027191l0 -1.453125l5.515625 0l0 1.359375l-0.78125 0q0.5625 0.34375 0.734375 0.625q0.171875 0.28125 0.171875 0.625q0 0.5 -0.28125 0.96875l-1.265625 -0.453125q0.234375 -0.375 0.234375 -0.6875q0 -0.3125 -0.171875 -0.53125q-0.15625 -0.203125 -0.609375 -0.328125q-0.4375 -0.125 -1.84375 -0.125l-1.703125 0z" fill-rule="nonzero"/><path fill="#b6d7a8" d="m332.69238 277.78543l0 83.102356l-14.0 14.0l-14.0 -14.0l0 -83.102356z" fill-rule="evenodd"/><path stroke="#000000" stroke-width="0.5380577427821522" stroke-linejoin="round" stroke-linecap="butt" d="m332.69238 277.78543l0 83.102356l-14.0 14.0l-14.0 -14.0l0 -83.102356z" fill-rule="evenodd"/><path fill="#000000" d="m317.4571 308.4405l0.140625 1.484375q-0.75 0.140625 -1.109375 0.546875q-0.359375 0.421875 -0.359375 1.125q0 0.734375 0.3125 1.109375q0.328125 0.390625 0.75 0.390625q0.265625 0 0.453125 -0.171875q0.1875 -0.15625 0.328125 -0.546875q0.09375 -0.265625 0.328125 -1.234375q0.3125 -1.234375 0.765625 -1.734375q0.625 -0.703125 1.53125 -0.703125q0.578125 0 1.078125 0.328125q0.515625 0.328125 0.78125 0.953125q0.265625 0.625 0.265625 1.5q0 1.4375 -0.640625 2.15625q-0.625 0.734375 -1.671875 0.765625l-0.0625 -1.53125q0.578125 -0.109375 0.828125 -0.4375q0.265625 -0.3125 0.265625 -0.96875q0 -0.671875 -0.265625 -1.046875q-0.1875 -0.25 -0.484375 -0.25q-0.265625 0 -0.453125 0.234375q-0.25 0.296875 -0.515625 1.40625q-0.265625 1.125 -0.546875 1.65625q-0.28125 0.546875 -0.78125 0.84375q-0.484375 0.3125 -1.203125 0.3125q-0.65625 0 -1.234375 -0.375q-0.5625 -0.359375 -0.84375 -1.03125q-0.28125 -0.65625 -0.28125 -1.640625q0 -1.453125 0.671875 -2.234375q0.671875 -0.765625 1.953125 -0.90625zm1.40625 12.284729l-0.265625 -1.4375q0.4375 -0.078125 0.65625 -0.34375q0.21875 -0.25 0.21875 -0.65625q0 -0.546875 -0.390625 -0.875q-0.375 -0.328125 -1.25 -0.328125q-0.984375 0 -1.390625 0.328125q-0.40625 0.34375 -0.40625 0.890625q0 0.421875 0.234375 0.6875q0.234375 0.265625 0.8125 0.375l-0.234375 1.421875q-0.984375 -0.21875 -1.5 -0.859375q-0.5 -0.625 -0.5 -1.6875q0 -1.21875 0.765625 -1.9375q0.765625 -0.71875 2.109375 -0.71875q1.375 0 2.125 0.71875q0.765625 0.734375 0.765625 1.96875q0 1.0 -0.4375 1.59375q-0.421875 0.59375 -1.3125 0.859375zm-1.046875 0.76156616q0.71875 0 1.390625 0.359375q0.6875 0.359375 1.046875 1.015625q0.359375 0.65625 0.359375 1.46875q0 1.25 -0.8125 2.046875q-0.8125 0.8125 -2.046875 0.8125q-1.265625 0 -2.09375 -0.8125q-0.8125 -0.8125 -0.8125 -2.03125q0 -0.765625 0.34375 -1.453125q0.34375 -0.6875 1.0 -1.046875q0.671875 -0.359375 1.625 -0.359375zm-0.078125 1.5q-0.828125 0 -1.265625 0.390625q-0.4375 0.390625 -0.4375 0.953125q0 0.578125 0.4375 0.96875q0.4375 0.390625 1.265625 0.390625q0.8125 0 1.25 -0.390625q0.4375 -0.390625 0.4375 -0.96875q0 -0.5625 -0.4375 -0.953125q-0.4375 -0.390625 -1.25 -0.390625zm-2.765625 6.7341003l0 -1.453125l5.515625 0l0 1.359375l-0.78125 0q0.5625 0.34375 0.734375 0.625q0.171875 0.28125 0.171875 0.625q0 0.5 -0.28125 0.96875l-1.265625 -0.453125q0.234375 -0.375 0.234375 -0.6875q0 -0.3125 -0.171875 -0.53125q-0.15625 -0.203125 -0.609375 -0.328125q-0.4375 -0.125 -1.84375 -0.125l-1.703125 0zm1.75 5.9377747l-0.234375 1.453125q-0.796875 -0.265625 -1.21875 -0.875q-0.421875 -0.609375 -0.421875 -1.515625q0 -1.4375 0.9375 -2.125q0.75 -0.546875 1.90625 -0.546875q1.375 0 2.140625 0.703125q0.78125 0.71875 0.78125 1.828125q0 1.21875 -0.8125 1.921875q-0.8125 0.71875 -2.484375 0.6875l0 -3.65625q-0.65625 0.015625 -1.015625 0.359375q-0.359375 0.34375 -0.359375 0.84375q0 0.34375 0.1875 0.578125q0.1875 0.234375 0.59375 0.34375zm1.484375 0.09375q0.625 -0.015625 0.953125 -0.328125q0.34375 -0.3125 0.34375 -0.765625q0 -0.46875 -0.359375 -0.78125q-0.34375 -0.3125 -0.9375 -0.3125l0 2.1875z" fill-rule="nonzero"/><path fill="#b6d7a8" d="m389.95102 277.8038l0 83.10239l-14.0 14.0l-14.0 -14.0l0 -83.10239z" fill-rule="evenodd"/><path stroke="#000000" stroke-width="0.5380577427821522" stroke-linejoin="round" stroke-linecap="butt" d="m389.95102 277.8038l0 83.10239l-14.0 14.0l-14.0 -14.0l0 -83.10239z" fill-rule="evenodd"/><path fill="#000000" d="m374.71576 299.59253l0.140625 1.484375q-0.75 0.140625 -1.109375 0.546875q-0.359375 0.421875 -0.359375 1.125q0 0.734375 0.3125 1.109375q0.328125 0.390625 0.75 0.390625q0.265625 0 0.453125 -0.171875q0.1875 -0.15625 0.328125 -0.546875q0.09375 -0.265625 0.328125 -1.234375q0.3125 -1.234375 0.765625 -1.734375q0.625 -0.703125 1.53125 -0.703125q0.578125 0 1.078125 0.328125q0.515625 0.328125 0.78125 0.953125q0.265625 0.625 0.265625 1.5q0 1.4375 -0.640625 2.15625q-0.625 0.734375 -1.671875 0.765625l-0.0625 -1.53125q0.578125 -0.109375 0.828125 -0.4375q0.265625 -0.3125 0.265625 -0.96875q0 -0.671875 -0.265625 -1.046875q-0.1875 -0.25 -0.484375 -0.25q-0.265625 0 -0.453125 0.234375q-0.25 0.296875 -0.515625 1.40625q-0.265625 1.125 -0.546875 1.65625q-0.28125 0.546875 -0.78125 0.84375q-0.484375 0.3125 -1.203125 0.3125q-0.65625 0 -1.234375 -0.375q-0.5625 -0.359375 -0.84375 -1.03125q-0.28125 -0.65625 -0.28125 -1.640625q0 -1.453125 0.671875 -2.234375q0.671875 -0.765625 1.953125 -0.90625zm-0.734375 10.659729l-0.234375 1.453125q-0.796875 -0.265625 -1.21875 -0.875q-0.421875 -0.609375 -0.421875 -1.515625q0 -1.4375 0.9375 -2.125q0.75 -0.546875 1.90625 -0.546875q1.375 0 2.140625 0.703125q0.78125 0.71875 0.78125 1.828125q0 1.21875 -0.8125 1.921875q-0.8125 0.71875 -2.484375 0.6875l0 -3.65625q-0.65625 0.015625 -1.015625 0.359375q-0.359375 0.34375 -0.359375 0.84375q0 0.34375 0.1875 0.578125q0.1875 0.234375 0.59375 0.34375zm1.484375 0.09375q0.625 -0.015625 0.953125 -0.328125q0.34375 -0.3125 0.34375 -0.765625q0 -0.46875 -0.359375 -0.78125q-0.34375 -0.3125 -0.9375 -0.3125l0 2.1875zm-3.234375 2.6365662l7.609375 0l0 1.453125l-7.609375 0l0 -1.453125zm1.75 6.143799l-0.234375 1.453125q-0.796875 -0.265625 -1.21875 -0.875q-0.421875 -0.609375 -0.421875 -1.515625q0 -1.4375 0.9375 -2.125q0.75 -0.546875 1.90625 -0.546875q1.375 0 2.140625 0.703125q0.78125 0.71875 0.78125 1.828125q0 1.21875 -0.8125 1.921875q-0.8125 0.71875 -2.484375 0.6875l0 -3.65625q-0.65625 0.015625 -1.015625 0.359375q-0.359375 0.34375 -0.359375 0.84375q0 0.34375 0.1875 0.578125q0.1875 0.234375 0.59375 0.34375zm1.484375 0.09375q0.625 -0.015625 0.953125 -0.328125q0.34375 -0.3125 0.34375 -0.765625q0 -0.46875 -0.359375 -0.78125q-0.34375 -0.3125 -0.9375 -0.3125l0 2.1875zm0.65625 7.449066l-0.265625 -1.4375q0.4375 -0.078125 0.65625 -0.34375q0.21875 -0.25 0.21875 -0.65625q0 -0.546875 -0.390625 -0.875q-0.375 -0.328125 -1.25 -0.328125q-0.984375 0 -1.390625 0.328125q-0.40625 0.34375 -0.40625 0.890625q0 0.421875 0.234375 0.6875q0.234375 0.265625 0.8125 0.375l-0.234375 1.421875q-0.984375 -0.21875 -1.5 -0.859375q-0.5 -0.625 -0.5 -1.6875q0 -1.21875 0.765625 -1.9375q0.765625 -0.71875 2.109375 -0.71875q1.375 0 2.125 0.71875q0.765625 0.734375 0.765625 1.96875q0 1.0 -0.4375 1.59375q-0.421875 0.59375 -1.3125 0.859375zm1.625 3.6365662l-1.15625 0l0 -1.0l-2.234375 0q-0.671875 0 -0.78125 0.03125q-0.109375 0.03125 -0.1875 0.125q-0.078125 0.109375 -0.078125 0.25q0 0.203125 0.140625 0.578125l-1.125 0.125q-0.21875 -0.5 -0.21875 -1.140625q0 -0.40625 0.125 -0.71875q0.140625 -0.3125 0.34375 -0.46875q0.21875 -0.140625 0.578125 -0.203125q0.25 -0.046875 1.03125 -0.046875l2.40625 0l0 -0.671875l1.15625 0l0 0.671875l1.09375 0l0.859375 1.46875l-1.953125 0l0 1.0zm0.75 1.0121765l1.34375 0l0 1.453125l-1.34375 0l0 -1.453125zm-6.265625 0l5.515625 0l0 1.453125l-5.515625 0l0 -1.453125zm2.84375 2.6125488q0.71875 0 1.390625 0.359375q0.6875 0.359375 1.046875 1.015625q0.359375 0.65625 0.359375 1.46875q0 1.25 -0.8125 2.046875q-0.8125 0.8125 -2.046875 0.8125q-1.265625 0 -2.09375 -0.8125q-0.8125 -0.8125 -0.8125 -2.03125q0 -0.765625 0.34375 -1.453125q0.34375 -0.6875 1.0 -1.046875q0.671875 -0.359375 1.625 -0.359375zm-0.078125 1.5q-0.828125 0 -1.265625 0.390625q-0.4375 0.390625 -0.4375 0.953125q0 0.578125 0.4375 0.96875q0.4375 0.390625 1.265625 0.390625q0.8125 0 1.25 -0.390625q0.4375 -0.390625 0.4375 -0.96875q0 -0.5625 -0.4375 -0.953125q-0.4375 -0.390625 -1.25 -0.390625zm-2.765625 10.3591l0 -1.453125l2.8125 0q0.890625 0 1.15625 -0.09375q0.265625 -0.09375 0.40625 -0.3125q0.15625 -0.203125 0.15625 -0.5q0 -0.375 -0.21875 -0.6875q-0.203125 -0.296875 -0.546875 -0.40625q-0.34375 -0.109375 -1.265625 -0.109375l-2.5 0l0 -1.46875l5.515625 0l0 1.359375l-0.8125 0q0.9375 0.71875 0.9375 1.8125q0 0.484375 -0.171875 0.890625q-0.171875 0.40625 -0.453125 0.609375q-0.265625 0.203125 -0.609375 0.28125q-0.34375 0.078125 -0.984375 0.078125l-3.421875 0z" fill-rule="nonzero"/><path fill="#b6d7a8" d="m275.43668 51.741123l0 83.10237l-14.0 14.0l-13.999985 -14.0l0 -83.10237z" fill-rule="evenodd"/><path stroke="#000000" stroke-width="0.5380577427821522" stroke-linejoin="round" stroke-linecap="butt" d="m275.43668 51.741123l0 83.10237l-14.0 14.0l-13.999985 -14.0l0 -83.10237z" fill-rule="evenodd"/><path fill="#000000" d="m257.71704 84.56631l7.609375 0l0 5.21875l-1.28125 0l0 -3.671875l-1.796875 0l0 3.171875l-1.296875 0l0 -3.171875l-3.234375 0l0 -1.546875zm6.265625 6.4841003l1.34375 0l0 1.453125l-1.34375 0l0 -1.453125zm-6.265625 0l5.515625 0l0 1.453125l-5.515625 0l0 -1.453125zm0 2.956314l7.609375 0l0 1.453125l-7.609375 0l0 -1.453125zm5.515625 5.487564l-1.15625 0l0 -1.0l-2.234375 0q-0.671875 0 -0.78125 0.03125q-0.109375 0.03125 -0.1875 0.125q-0.078125 0.109375 -0.078125 0.25q0 0.203125 0.140625 0.578125l-1.125 0.125q-0.21875 -0.5 -0.21875 -1.140625q0 -0.40625 0.125 -0.71875q0.140625 -0.3125 0.34375 -0.46875q0.21875 -0.140625 0.578125 -0.203125q0.25 -0.046875 1.03125 -0.046875l2.40625 0l0 -0.671875l1.15625 0l0 0.671875l1.09375 0l0.859375 1.46875l-1.953125 0l0 1.0zm-3.765625 4.1996613l-0.234375 1.453125q-0.796875 -0.265625 -1.21875 -0.875q-0.421875 -0.609375 -0.421875 -1.515625q0 -1.4375 0.9375 -2.125q0.75 -0.546875 1.90625 -0.546875q1.375 0 2.140625 0.703125q0.78125 0.71875 0.78125 1.828125q0 1.21875 -0.8125 1.921875q-0.8125 0.71875 -2.484375 0.6875l0 -3.65625q-0.65625 0.015625 -1.015625 0.359375q-0.359375 0.34375 -0.359375 0.84375q0 0.34375 0.1875 0.578125q0.1875 0.234375 0.59375 0.34375zm1.484375 0.09375q0.625 -0.015625 0.953125 -0.328125q0.34375 -0.3125 0.34375 -0.765625q0 -0.46875 -0.359375 -0.78125q-0.34375 -0.3125 -0.9375 -0.3125l0 2.1875zm-3.234375 4.027191l0 -1.453125l5.515625 0l0 1.359375l-0.78125 0q0.5625 0.34375 0.734375 0.625q0.171875 0.28125 0.171875 0.625q0 0.5 -0.28125 0.96875l-1.265625 -0.453125q0.234375 -0.375 0.234375 -0.6875q0 -0.3125 -0.171875 -0.53125q-0.15625 -0.203125 -0.609375 -0.328125q-0.4375 -0.125 -1.84375 -0.125l-1.703125 0z" fill-rule="nonzero"/><path fill="#b6d7a8" d="m333.2015 51.728l0 83.10237l-14.0 14.0l-14.0 -14.0l0 -83.10237z" fill-rule="evenodd"/><path stroke="#000000" stroke-width="0.5380577427821522" stroke-linejoin="round" stroke-linecap="butt" d="m333.2015 51.728l0 83.10237l-14.0 14.0l-14.0 -14.0l0 -83.10237z" fill-rule="evenodd"/><path fill="#000000" d="m317.96622 82.383064l0.140625 1.484375q-0.75 0.140625 -1.109375 0.546875q-0.359375 0.421875 -0.359375 1.125q0 0.734375 0.3125 1.109375q0.328125 0.390625 0.75 0.390625q0.265625 0 0.453125 -0.171875q0.1875 -0.15625 0.328125 -0.546875q0.09375 -0.265625 0.328125 -1.234375q0.3125 -1.234375 0.765625 -1.734375q0.625 -0.703125 1.53125 -0.703125q0.578125 0 1.078125 0.328125q0.515625 0.328125 0.78125 0.953125q0.265625 0.625 0.265625 1.5q0 1.4375 -0.640625 2.15625q-0.625 0.734375 -1.671875 0.765625l-0.0625 -1.53125q0.578125 -0.109375 0.828125 -0.4375q0.265625 -0.3125 0.265625 -0.96875q0 -0.671875 -0.265625 -1.046875q-0.1875 -0.25 -0.484375 -0.25q-0.265625 0 -0.453125 0.234375q-0.25 0.296875 -0.515625 1.40625q-0.265625 1.125 -0.546875 1.65625q-0.28125 0.546875 -0.78125 0.84375q-0.484375 0.3125 -1.203125 0.3125q-0.65625 0 -1.234375 -0.375q-0.5625 -0.359375 -0.84375 -1.03125q-0.28125 -0.65625 -0.28125 -1.640625q0 -1.453125 0.671875 -2.234375q0.671875 -0.765625 1.953125 -0.90625zm1.40625 12.284714l-0.265625 -1.4375q0.4375 -0.078125 0.65625 -0.34375q0.21875 -0.25 0.21875 -0.65625q0 -0.546875 -0.390625 -0.875q-0.375 -0.328125 -1.25 -0.328125q-0.984375 0 -1.390625 0.328125q-0.40625 0.34375 -0.40625 0.890625q0 0.421875 0.234375 0.6875q0.234375 0.265625 0.8125 0.375l-0.234375 1.421875q-0.984375 -0.21875 -1.5 -0.859375q-0.5 -0.625 -0.5 -1.6875q0 -1.21875 0.765625 -1.9375q0.765625 -0.71875 2.109375 -0.71875q1.375 0 2.125 0.71875q0.765625 0.734375 0.765625 1.96875q0 1.0 -0.4375 1.59375q-0.421875 0.59375 -1.3125 0.859375zm-1.046875 0.76156616q0.71875 0 1.390625 0.359375q0.6875 0.359375 1.046875 1.015625q0.359375 0.65625 0.359375 1.46875q0 1.25 -0.8125 2.046875q-0.8125 0.8125 -2.046875 0.8125q-1.265625 0 -2.09375 -0.8125q-0.8125 -0.8125 -0.8125 -2.03125q0 -0.765625 0.34375 -1.453125q0.34375 -0.6875 1.0 -1.046875q0.671875 -0.359375 1.625 -0.359375zm-0.078125 1.5q-0.828125 0 -1.265625 0.390625q-0.4375 0.390625 -0.4375 0.953125q0 0.578125 0.4375 0.96875q0.4375 0.390625 1.265625 0.390625q0.8125 0 1.25 -0.390625q0.4375 -0.390625 0.4375 -0.96875q0 -0.5625 -0.4375 -0.953125q-0.4375 -0.390625 -1.25 -0.390625zm-2.765625 6.7341003l0 -1.453125l5.515625 0l0 1.359375l-0.78125 0q0.5625 0.34375 0.734375 0.625q0.171875 0.28125 0.171875 0.625q0 0.5 -0.28125 0.96875l-1.265625 -0.453125q0.234375 -0.375 0.234375 -0.6875q0 -0.3125 -0.171875 -0.53125q-0.15625 -0.203125 -0.609375 -0.328125q-0.4375 -0.125 -1.84375 -0.125l-1.703125 0zm1.75 5.93779l-0.234375 1.453125q-0.796875 -0.265625 -1.21875 -0.875q-0.421875 -0.609375 -0.421875 -1.515625q0 -1.4375 0.9375 -2.125q0.75 -0.546875 1.90625 -0.546875q1.375 0 2.140625 0.703125q0.78125 0.71875 0.78125 1.828125q0 1.21875 -0.8125 1.921875q-0.8125 0.71875 -2.484375 0.6875l0 -3.65625q-0.65625 0.015625 -1.015625 0.359375q-0.359375 0.34375 -0.359375 0.84375q0 0.34375 0.1875 0.578125q0.1875 0.234375 0.59375 0.34375zm1.484375 0.09375q0.625 -0.015625 0.953125 -0.328125q0.34375 -0.3125 0.34375 -0.765625q0 -0.46875 -0.359375 -0.78125q-0.34375 -0.3125 -0.9375 -0.3125l0 2.1875z" fill-rule="nonzero"/><path fill="#b6d7a8" d="m390.9654 51.741123l0 83.10237l-14.0 14.0l-14.0 -14.0l0 -83.10237z" fill-rule="evenodd"/><path stroke="#000000" stroke-width="0.5380577427821522" stroke-linejoin="round" stroke-linecap="butt" d="m390.9654 51.741123l0 83.10237l-14.0 14.0l-14.0 -14.0l0 -83.10237z" fill-rule="evenodd"/><path fill="#000000" d="m373.24576 86.628975l7.609375 0l0 2.453125q0 1.40625 -0.109375 1.84375q-0.171875 0.640625 -0.75 1.078125q-0.5625 0.453125 -1.46875 0.453125q-0.703125 0 -1.1875 -0.265625q-0.484375 -0.25 -0.75 -0.640625q-0.265625 -0.390625 -0.359375 -0.796875q-0.109375 -0.546875 -0.109375 -1.59375l0 -1.0l-2.875 0l0 -1.53125zm6.328125 1.53125l-2.15625 0l0 0.84375q0 0.90625 0.109375 1.203125q0.125 0.3125 0.375 0.484375q0.265625 0.1875 0.59375 0.1875q0.421875 0 0.6875 -0.25q0.265625 -0.25 0.34375 -0.625q0.046875 -0.265625 0.046875 -1.09375l0 -0.75zm-0.0625 5.5503387l1.34375 0l0 1.453125l-1.34375 0l0 -1.453125zm-6.265625 0l5.515625 0l0 1.453125l-5.515625 0l0 -1.453125zm3.890625 7.768814l-0.265625 -1.4375q0.4375 -0.078125 0.65625 -0.34375q0.21875 -0.25 0.21875 -0.65625q0 -0.546875 -0.390625 -0.875q-0.375 -0.328125 -1.25 -0.328125q-0.984375 0 -1.390625 0.328125q-0.40625 0.34375 -0.40625 0.890625q0 0.421875 0.234375 0.6875q0.234375 0.265625 0.8125 0.375l-0.234375 1.421875q-0.984375 -0.21875 -1.5 -0.859375q-0.5 -0.625 -0.5 -1.6875q0 -1.21875 0.765625 -1.9375q0.765625 -0.71875 2.109375 -0.71875q1.375 0 2.125 0.71875q0.765625 0.734375 0.765625 1.96875q0 1.0 -0.4375 1.59375q-0.421875 0.59375 -1.3125 0.859375zm-3.890625 1.0584412l7.609375 0l0 1.453125l-4.03125 0l1.9375 1.703125l0 1.796875l-2.015625 -1.875l-3.5 2.015625l0 -1.578125l2.484375 -1.375l-0.71875 -0.6875l-1.765625 0l0 -1.453125z" fill-rule="nonzero"/><path fill="#b6d7a8" d="m140.31125 186.06227l0 83.10237l-14.000008 14.0l-14.0 -14.0l0 -83.10237z" fill-rule="evenodd"/><path stroke="#000000" stroke-width="0.5380577427821522" stroke-linejoin="round" stroke-linecap="butt" d="m140.31125 186.06227l0 83.10237l-14.000008 14.0l-14.0 -14.0l0 -83.10237z" fill-rule="evenodd"/><path fill="#000000" d="m122.5916 199.66367l7.609375 0l0 2.453125q0 1.40625 -0.109375 1.84375q-0.171875 0.640625 -0.75 1.078125q-0.5625 0.453125 -1.46875 0.453125q-0.703125 0 -1.1875 -0.265625q-0.484375 -0.25 -0.75 -0.640625q-0.265625 -0.390625 -0.359375 -0.796875q-0.109375 -0.546875 -0.109375 -1.59375l0 -1.0l-2.875 0l0 -1.53125zm6.328125 1.53125l-2.15625 0l0 0.84375q0 0.90625 0.109375 1.203125q0.125 0.3125 0.375 0.484375q0.265625 0.1875 0.59375 0.1875q0.421875 0 0.6875 -0.25q0.265625 -0.25 0.34375 -0.625q0.046875 -0.265625 0.046875 -1.09375l0 -0.75zm-6.328125 6.9409637l0 -1.453125l5.515625 0l0 1.359375l-0.78125 0q0.5625 0.34375 0.734375 0.625q0.171875 0.28125 0.171875 0.625q0 0.5 -0.28125 0.96875l-1.265625 -0.453125q0.234375 -0.375 0.234375 -0.6875q0 -0.3125 -0.171875 -0.53125q-0.15625 -0.203125 -0.609375 -0.328125q-0.4375 -0.125 -1.84375 -0.125l-1.703125 0zm1.75 5.93779l-0.234375 1.453125q-0.796875 -0.265625 -1.21875 -0.875q-0.421875 -0.609375 -0.421875 -1.515625q0 -1.4375 0.9375 -2.125q0.75 -0.546875 1.90625 -0.546875q1.375 0 2.140625 0.703125q0.78125 0.71875 0.78125 1.828125q0 1.21875 -0.8125 1.921875q-0.8125 0.71875 -2.484375 0.6875l0 -3.65625q-0.65625 0.015625 -1.015625 0.359375q-0.359375 0.34375 -0.359375 0.84375q0 0.34375 0.1875 0.578125q0.1875 0.234375 0.59375 0.34375zm1.484375 0.09375q0.625 -0.015625 0.953125 -0.328125q0.34375 -0.3125 0.34375 -0.765625q0 -0.46875 -0.359375 -0.78125q-0.34375 -0.3125 -0.9375 -0.3125l0 2.1875zm-0.75 2.2615662l0.140625 1.484375q-0.75 0.140625 -1.109375 0.546875q-0.359375 0.421875 -0.359375 1.125q0 0.734375 0.3125 1.109375q0.328125 0.390625 0.75 0.390625q0.265625 0 0.453125 -0.171875q0.1875 -0.15625 0.328125 -0.546875q0.09375 -0.265625 0.328125 -1.234375q0.3125 -1.234375 0.765625 -1.734375q0.625 -0.703125 1.53125 -0.703125q0.578125 0 1.078125 0.328125q0.515625 0.328125 0.78125 0.953125q0.265625 0.625 0.265625 1.5q0 1.4375 -0.640625 2.15625q-0.625 0.734375 -1.671875 0.765625l-0.0625 -1.53125q0.578125 -0.109375 0.828125 -0.4375q0.265625 -0.3125 0.265625 -0.96875q0 -0.671875 -0.265625 -1.046875q-0.1875 -0.25 -0.484375 -0.25q-0.265625 0 -0.453125 0.234375q-0.25 0.296875 -0.515625 1.40625q-0.265625 1.125 -0.546875 1.65625q-0.28125 0.546875 -0.78125 0.84375q-0.484375 0.3125 -1.203125 0.3125q-0.65625 0 -1.234375 -0.375q-0.5625 -0.359375 -0.84375 -1.03125q-0.28125 -0.65625 -0.28125 -1.640625q0 -1.453125 0.671875 -2.234375q0.671875 -0.765625 1.953125 -0.90625zm1.40625 12.284714l-0.265625 -1.4375q0.4375 -0.078125 0.65625 -0.34375q0.21875 -0.25 0.21875 -0.65625q0 -0.546875 -0.390625 -0.875q-0.375 -0.328125 -1.25 -0.328125q-0.984375 0 -1.390625 0.328125q-0.40625 0.34375 -0.40625 0.890625q0 0.421875 0.234375 0.6875q0.234375 0.265625 0.8125 0.375l-0.234375 1.421875q-0.984375 -0.21875 -1.5 -0.859375q-0.5 -0.625 -0.5 -1.6875q0 -1.21875 0.765625 -1.9375q0.765625 -0.71875 2.109375 -0.71875q1.375 0 2.125 0.71875q0.765625 0.734375 0.765625 1.96875q0 1.0 -0.4375 1.59375q-0.421875 0.59375 -1.3125 0.859375zm3.71875 2.5584412l-2.796875 0q0.828125 0.703125 0.828125 1.6875q0 0.5 -0.1875 0.90625q-0.1875 0.40625 -0.484375 0.609375q-0.28125 0.203125 -0.640625 0.28125q-0.34375 0.078125 -1.09375 0.078125l-3.234375 0l0 -1.453125l2.921875 0q0.859375 0 1.09375 -0.09375q0.234375 -0.078125 0.375 -0.296875q0.140625 -0.203125 0.140625 -0.515625q0 -0.359375 -0.1875 -0.65625q-0.171875 -0.28125 -0.53125 -0.421875q-0.359375 -0.125 -1.046875 -0.125l-2.765625 0l0 -1.453125l7.609375 0l0 1.453125zm-5.859375 8.2341l-0.234375 1.453125q-0.796875 -0.265625 -1.21875 -0.875q-0.421875 -0.609375 -0.421875 -1.515625q0 -1.4375 0.9375 -2.125q0.75 -0.546875 1.90625 -0.546875q1.375 0 2.140625 0.703125q0.78125 0.71875 0.78125 1.828125q0 1.21875 -0.8125 1.921875q-0.8125 0.71875 -2.484375 0.6875l0 -3.65625q-0.65625 0.015625 -1.015625 0.359375q-0.359375 0.34375 -0.359375 0.84375q0 0.34375 0.1875 0.578125q0.1875 0.234375 0.59375 0.34375zm1.484375 0.09375q0.625 -0.015625 0.953125 -0.328125q0.34375 -0.3125 0.34375 -0.765625q0 -0.46875 -0.359375 -0.78125q-0.34375 -0.3125 -0.9375 -0.3125l0 2.1875zm-3.234375 7.699066l0 -1.359375l0.8125 0q-0.46875 -0.34375 -0.703125 -0.8125q-0.234375 -0.453125 -0.234375 -0.90625q0 -0.953125 0.765625 -1.640625q0.765625 -0.671875 2.140625 -0.671875q1.40625 0 2.125 0.65625q0.734375 0.65625 0.734375 1.671875q0 0.921875 -0.765625 1.59375l2.734375 0l0 1.46875l-7.609375 0zm2.875 -3.90625q-0.875 0 -1.28125 0.25q-0.5625 0.359375 -0.5625 0.984375q0 0.5 0.421875 0.859375q0.4375 0.359375 1.28125 0.359375q0.953125 0 1.375 -0.34375q0.421875 -0.34375 0.421875 -0.875q0 -0.53125 -0.421875 -0.890625q-0.40625 -0.34375 -1.234375 -0.34375zm-2.875 8.96846l0.828125 0q-0.4375 -0.296875 -0.703125 -0.796875q-0.25 -0.484375 -0.25 -1.03125q0 -0.54685974 0.234375 -0.99998474q0.25 -0.4375 0.6875 -0.640625q0.453125 -0.1875 1.234375 -0.1875l3.484375 0l0 1.4531097l-2.53125 0q-1.171875 0 -1.4375 0.078125q-0.25 0.09375 -0.40625 0.296875q-0.15625 0.21875 -0.15625 0.546875q0 0.375 0.203125 0.671875q0.203125 0.296875 0.5 0.40625q0.3125 0.109375 1.5 0.109375l2.328125 0l0 1.453125l-5.515625 0l0 -1.359375zm0 2.8747253l7.609375 0l0 1.453125l-7.609375 0l0 -1.453125zm1.75 6.1438293l-0.234375 1.453125q-0.796875 -0.265625 -1.21875 -0.875q-0.421875 -0.609375 -0.421875 -1.515625q0 -1.4375 0.9375 -2.125q0.75 -0.546875 1.90625 -0.546875q1.375 0 2.140625 0.703125q0.78125 0.71875 0.78125 1.828125q0 1.21875 -0.8125 1.921875q-0.8125 0.71875 -2.484375 0.6875l0 -3.65625q-0.65625 0.015625 -1.015625 0.359375q-0.359375 0.34375 -0.359375 0.84375q0 0.34375 0.1875 0.578125q0.1875 0.234375 0.59375 0.34375zm1.484375 0.09375q0.625 -0.015625 0.953125 -0.328125q0.34375 -0.3125 0.34375 -0.765625q0 -0.46875 -0.359375 -0.78125q-0.34375 -0.3125 -0.9375 -0.3125l0 2.1875z" fill-rule="nonzero"/><path fill="#b6d7a8" d="m504.46555 186.22649l0 82.755905l-14.0 14.0l-14.0 -14.0l0 -82.755905z" fill-rule="evenodd"/><path stroke="#000000" stroke-width="0.5380577427821522" stroke-linejoin="round" stroke-linecap="butt" d="m504.46555 186.22649l0 82.755905l-14.0 14.0l-14.0 -14.0l0 -82.755905z" fill-rule="evenodd"/><path fill="#000000" d="m486.7459 196.70354l7.609375 0l0 2.453125q0 1.40625 -0.109375 1.84375q-0.171875 0.640625 -0.75 1.078125q-0.5625 0.453125 -1.46875 0.453125q-0.703125 0 -1.1875 -0.265625q-0.484375 -0.25 -0.75 -0.640625q-0.265625 -0.390625 -0.359375 -0.796875q-0.109375 -0.546875 -0.109375 -1.59375l0 -1.0l-2.875 0l0 -1.53125zm6.328125 1.53125l-2.15625 0l0 0.84375q0 0.90625 0.109375 1.203125q0.125 0.3125 0.375 0.484375q0.265625 0.1875 0.59375 0.1875q0.421875 0 0.6875 -0.25q0.265625 -0.25 0.34375 -0.625q0.046875 -0.265625 0.046875 -1.09375l0 -0.75zm-3.484375 5.2065887q0.71875 0 1.390625 0.359375q0.6875 0.359375 1.046875 1.015625q0.359375 0.65625 0.359375 1.46875q0 1.25 -0.8125 2.046875q-0.8125 0.8125 -2.046875 0.8125q-1.265625 0 -2.09375 -0.8125q-0.8125 -0.8125 -0.8125 -2.03125q0 -0.765625 0.34375 -1.453125q0.34375 -0.6875 1.0 -1.046875q0.671875 -0.359375 1.625 -0.359375zm-0.078125 1.5q-0.828125 0 -1.265625 0.390625q-0.4375 0.390625 -0.4375 0.953125q0 0.578125 0.4375 0.96875q0.4375 0.390625 1.265625 0.390625q0.8125 0 1.25 -0.390625q0.4375 -0.390625 0.4375 -0.96875q0 -0.5625 -0.4375 -0.953125q-0.4375 -0.390625 -1.25 -0.390625zm-1.1875 4.8278503l0.21875 1.46875q-0.421875 0.09375 -0.640625 0.375q-0.21875 0.28125 -0.21875 0.796875q0 0.5625 0.203125 0.859375q0.140625 0.1875 0.390625 0.1875q0.15625 0 0.265625 -0.109375q0.109375 -0.109375 0.203125 -0.484375q0.390625 -1.765625 0.703125 -2.234375q0.453125 -0.65625 1.25 -0.65625q0.71875 0 1.203125 0.5625q0.484375 0.5625 0.484375 1.765625q0 1.125 -0.375 1.671875q-0.359375 0.5625 -1.078125 0.765625l-0.265625 -1.375q0.328125 -0.09375 0.5 -0.34375q0.171875 -0.25 0.171875 -0.703125q0 -0.578125 -0.15625 -0.828125q-0.125 -0.15625 -0.296875 -0.15625q-0.15625 0 -0.265625 0.140625q-0.15625 0.203125 -0.421875 1.359375q-0.265625 1.171875 -0.640625 1.640625q-0.390625 0.453125 -1.09375 0.453125q-0.75 0 -1.296875 -0.640625q-0.546875 -0.625 -0.546875 -1.875q0 -1.125 0.453125 -1.78125q0.46875 -0.65625 1.25 -0.859375zm3.9375 8.964691l-1.15625 0l0 -1.0l-2.234375 0q-0.671875 0 -0.78125 0.03125q-0.109375 0.03125 -0.1875 0.125q-0.078125 0.109375 -0.078125 0.25q0 0.203125 0.140625 0.578125l-1.125 0.125q-0.21875 -0.5 -0.21875 -1.140625q0 -0.40625 0.125 -0.71875q0.140625 -0.3125 0.34375 -0.46875q0.21875 -0.140625 0.578125 -0.203125q0.25 -0.046875 1.03125 -0.046875l2.40625 0l0 -0.671875l1.15625 0l0 0.671875l1.09375 0l0.859375 1.46875l-1.953125 0l0 1.0zm-3.03125 0.63716125l0.140625 1.484375q-0.75 0.140625 -1.109375 0.546875q-0.359375 0.421875 -0.359375 1.125q0 0.734375 0.3125 1.109375q0.328125 0.390625 0.75 0.390625q0.265625 0 0.453125 -0.171875q0.1875 -0.15625 0.328125 -0.546875q0.09375 -0.265625 0.328125 -1.234375q0.3125 -1.234375 0.765625 -1.734375q0.625 -0.703125 1.53125 -0.703125q0.578125 0 1.078125 0.328125q0.515625 0.328125 0.78125 0.953125q0.265625 0.625 0.265625 1.5q0 1.4375 -0.640625 2.15625q-0.625 0.734375 -1.671875 0.765625l-0.0625 -1.53125q0.578125 -0.109375 0.828125 -0.4375q0.265625 -0.3125 0.265625 -0.96875q0 -0.671875 -0.265625 -1.046875q-0.1875 -0.25 -0.484375 -0.25q-0.265625 0 -0.453125 0.234375q-0.25 0.296875 -0.515625 1.40625q-0.265625 1.125 -0.546875 1.65625q-0.28125 0.546875 -0.78125 0.84375q-0.484375 0.3125 -1.203125 0.3125q-0.65625 0 -1.234375 -0.375q-0.5625 -0.359375 -0.84375 -1.03125q-0.28125 -0.65625 -0.28125 -1.640625q0 -1.453125 0.671875 -2.234375q0.671875 -0.765625 1.953125 -0.90625zm1.40625 12.284714l-0.265625 -1.4375q0.4375 -0.078125 0.65625 -0.34375q0.21875 -0.25 0.21875 -0.65625q0 -0.546875 -0.390625 -0.875q-0.375 -0.328125 -1.25 -0.328125q-0.984375 0 -1.390625 0.328125q-0.40625 0.34375 -0.40625 0.890625q0 0.421875 0.234375 0.6875q0.234375 0.265625 0.8125 0.375l-0.234375 1.421875q-0.984375 -0.21875 -1.5 -0.859375q-0.5 -0.625 -0.5 -1.6875q0 -1.21875 0.765625 -1.9375q0.765625 -0.71875 2.109375 -0.71875q1.375 0 2.125 0.71875q0.765625 0.734375 0.765625 1.96875q0 1.0 -0.4375 1.59375q-0.421875 0.59375 -1.3125 0.859375zm3.71875 2.5584412l-2.796875 0q0.828125 0.703125 0.828125 1.6875q0 0.5 -0.1875 0.90625q-0.1875 0.40625 -0.484375 0.609375q-0.28125 0.203125 -0.640625 0.28125q-0.34375 0.078125 -1.09375 0.078125l-3.234375 0l0 -1.453125l2.921875 0q0.859375 0 1.09375 -0.09375q0.234375 -0.078125 0.375 -0.296875q0.140625 -0.203125 0.140625 -0.515625q0 -0.359375 -0.1875 -0.65625q-0.171875 -0.28125 -0.53125 -0.421875q-0.359375 -0.125 -1.046875 -0.125l-2.765625 0l0 -1.453125l7.609375 0l0 1.453125zm-5.859375 8.2341l-0.234375 1.453125q-0.796875 -0.265625 -1.21875 -0.875q-0.421875 -0.609375 -0.421875 -1.515625q0 -1.4375 0.9375 -2.125q0.75 -0.546875 1.90625 -0.546875q1.375 0 2.140625 0.703125q0.78125 0.71875 0.78125 1.828125q0 1.21875 -0.8125 1.921875q-0.8125 0.71875 -2.484375 0.6875l0 -3.65625q-0.65625 0.015625 -1.015625 0.359375q-0.359375 0.34375 -0.359375 0.84375q0 0.34375 0.1875 0.578125q0.1875 0.234375 0.59375 0.34375zm1.484375 0.09375q0.625 -0.015625 0.953125 -0.328125q0.34375 -0.3125 0.34375 -0.765625q0 -0.46875 -0.359375 -0.78125q-0.34375 -0.3125 -0.9375 -0.3125l0 2.1875zm-3.234375 7.699066l0 -1.359375l0.8125 0q-0.46875 -0.34375 -0.703125 -0.8125q-0.234375 -0.453125 -0.234375 -0.90625q0 -0.953125 0.765625 -1.640625q0.765625 -0.671875 2.140625 -0.671875q1.40625 0 2.125 0.65625q0.734375 0.65625 0.734375 1.671875q0 0.921875 -0.765625 1.59375l2.734375 0l0 1.46875l-7.609375 0zm2.875 -3.90625q-0.875 0 -1.28125 0.25q-0.5625 0.359375 -0.5625 0.984375q0 0.5 0.421875 0.859375q0.4375 0.359375 1.28125 0.359375q0.953125 0 1.375 -0.34375q0.421875 -0.34375 0.421875 -0.875q0 -0.53125 -0.421875 -0.890625q-0.40625 -0.34375 -1.234375 -0.34375zm-2.875 8.968475l0.828125 0q-0.4375 -0.296875 -0.703125 -0.796875q-0.25 -0.484375 -0.25 -1.03125q0 -0.546875 0.234375 -1.0q0.25 -0.4375 0.6875 -0.640625q0.453125 -0.1875 1.234375 -0.1875l3.484375 0l0 1.453125l-2.53125 0q-1.171875 0 -1.4375 0.078125q-0.25 0.09375 -0.40625 0.296875q-0.15625 0.21875 -0.15625 0.546875q0 0.375 0.203125 0.671875q0.203125 0.296875 0.5 0.40625q0.3125 0.109375 1.5 0.109375l2.328125 0l0 1.453125l-5.515625 0l0 -1.359375zm0 2.8747253l7.609375 0l0 1.453125l-7.609375 0l0 -1.453125zm1.75 6.143799l-0.234375 1.453125q-0.796875 -0.265625 -1.21875 -0.875q-0.421875 -0.609375 -0.421875 -1.515625q0 -1.4375 0.9375 -2.125q0.75 -0.546875 1.90625 -0.546875q1.375 0 2.140625 0.703125q0.78125 0.71875 0.78125 1.828125q0 1.21875 -0.8125 1.921875q-0.8125 0.71875 -2.484375 0.6875l0 -3.65625q-0.65625 0.015625 -1.015625 0.359375q-0.359375 0.34375 -0.359375 0.84375q0 0.34375 0.1875 0.578125q0.1875 0.234375 0.59375 0.34375zm1.484375 0.09375q0.625 -0.015625 0.953125 -0.328125q0.34375 -0.3125 0.34375 -0.765625q0 -0.46875 -0.359375 -0.78125q-0.34375 -0.3125 -0.9375 -0.3125l0 2.1875z" fill-rule="nonzero"/><path fill="#000000" fill-opacity="0.0" d="m13.178154 281.87927l88.850395 0.8188782" fill-rule="evenodd"/><path stroke="#000000" stroke-width="2.606299212598425" stroke-linejoin="round" stroke-linecap="butt" d="m13.178153 281.87927l73.21326 0.67477417" fill-rule="evenodd"/><path fill="#000000" stroke="#000000" stroke-width="2.606299212598425" stroke-linecap="butt" d="m86.35174 286.85876l11.866814 -4.195709l-11.78746 -4.413727z" fill-rule="evenodd"/><path fill="#000000" fill-opacity="0.0" d="m524.29626 282.69815l111.1181 0.31497192" fill-rule="evenodd"/><path stroke="#000000" stroke-width="2.606299212598425" stroke-linejoin="round" stroke-linecap="butt" d="m524.29626 282.69815l95.48041 0.27062988" fill-rule="evenodd"/><path fill="#000000" stroke="#000000" stroke-width="2.606299212598425" stroke-linecap="butt" d="m619.76447 287.27368l11.839783 -4.2713623l-11.81543 -4.3384094z" fill-rule="evenodd"/></g></svg>